<?xml version="1.0" encoding="UTF-8" standalone="no"?>
<svg xmlns="http://www.w3.org/2000/svg"
     viewBox="50 60 1100 1100"
     width="1100"
     height="1100"
     fill="currentColor"
     stroke="currentColor">
  <g transform="translate(4.763702,7.069182)">
    <g transform="matrix(0.1,0,0,-0.1,0,1198)">
      <path stroke-width="320"
            stroke-linejoin="round"
            stroke-linecap="round"
            d="m 9334,10872 c 4,-7 3,-12 -2,-12 -6,0 5,-30 24,-67 72,-143 74,-338 4,-496 -83,-187 -503,-608 -853,-855 -205,-145 -333,-214 -527,-285 -266,-97 -474,-138 -713,-138 -192,0 -267,9 -552,66 -333,67 -413,76 -685,82 -184,4 -285,1 -405,-11 -942,-95 -1791,-610 -2327,-1412 -90,-135 -254,-453 -321,-624 -159,-407 -234,-879 -208,-1312 19,-306 64,-560 143,-798 171,-519 431,-943 818,-1331 246,-247 473,-418 742,-558 338,-177 663,-281 1058,-337 172,-25 606,-30 775,-9 412,50 807,177 1157,371 173,97 241,111 362,73 80,-25 96,-39 426,-365 184,-182 237,-228 289,-255 265,-133 581,79 558,375 -11,148 -50,203 -326,471 -133,128 -249,263 -279,322 -15,29 -22,62 -23,110 -2,109 7,132 105,283 106,162 114,175 195,332 279,537 400,1167 340,1768 -33,330 -113,655 -234,950 -157,386 -269,499 -477,488 -127,-6 -223,-73 -280,-194 -25,-54 -30,-76 -30,-145 0,-80 1,-83 62,-208 111,-223 159,-349 210,-551 63,-250 74,-350 74,-650 1,-300 -6,-357 -66,-595 -52,-206 -114,-374 -200,-535 -139,-263 -202,-320 -353,-320 -50,0 -69,5 -106,28 -24,16 -182,164 -350,329 -369,364 -376,368 -539,368 -93,0 -112,-3 -162,-27 -189,-88 -274,-306 -196,-504 21,-52 52,-87 313,-348 160,-159 300,-303 313,-320 42,-57 56,-159 31,-233 -43,-131 -444,-286 -899,-346 -119,-16 -349,-19 -490,-6 -471,44 -881,194 -1242,456 -272,196 -514,468 -690,774 -147,254 -265,577 -308,844 -50,304 -48,629 4,935 36,211 132,489 237,690 395,752 1143,1255 1979,1331 248,22 542,3 800,-52 315,-67 390,-81 530,-94 902,-89 1645,218 2424,1001 217,218 366,355 433,400 124,82 290,114 421,79 70,-19 155,-57 185,-83 9,-8 17,-12 17,-7 0,4 7,2 15,-5 8,-7 15,-9 15,-5 0,4 6,4 13,-1 7,-5 6,-2 -3,6 -9,8 -16,18 -16,21 3,29 -567,635 -585,623 -5,-3 -8,-2 -7,3 3,8 -59,68 -197,189 -132,117 -416,338 -386,301 12,-15 12,-17 -3,-11 -9,3 -16,12 -16,19 0,8 -5,17 -12,21 -7,4 -8,3 -4,-4 z"/>
    </g>
  </g>
</svg>
