<?xml version="1.0" encoding="UTF-8" standalone="no"?>
<svg xmlns="http://www.w3.org/2000/svg"
     viewBox="0 0 1024 1024"
     width="1024"
     height="1024">
  <g transform="translate(0,1024) scale(0.1,-0.1)" fill="currentColor">
    <path d="M4760 10144 c-19 -2 -91 -9 -160 -14 -847 -72 -1725 -399 -2431 -906
-1164 -835 -1890 -2083 -2056 -3536 -25 -220 -25 -916 0 -1136 154 -1342 780
-2504 1802 -3342 742 -609 1640 -983 2637 -1097 220 -25 915 -25 1138 0 1649
187 3040 1107 3839 2540 319 572 519 1205 598 1899 25 220 25 916 0 1136 -272
2372 -2067 4171 -4427 4438 -136 15 -842 29 -940 18z m670 -825 c683 -62 1338
-282 1910 -642 l85 -54 6 -79 c3 -46 16 -103 29 -136 22 -57 22 -59 5 -103
-59 -155 -443 -516 -731 -688 -138 -83 -405 -168 -570 -182 -84 -8 -196 6
-394 46 -257 53 -610 73 -870 50 -1126 -100 -2011 -942 -2187 -2081 -25 -163
-25 -601 1 -785 108 -784 631 -1513 1331 -1855 223 -109 407 -170 655 -216
143 -26 698 -32 859 -9 248 36 473 106 720 226 90 43 165 79 168 79 2 0 89
-83 193 -184 284 -276 310 -290 530 -284 110 3 146 8 193 27 81 32 168 114
209 199 l33 67 0 160 c0 223 -5 234 -235 471 -95 97 -176 187 -182 199 -9 19
-1 37 49 116 261 411 377 802 390 1304 11 452 -61 826 -228 1183 -116 247
-206 320 -408 329 -228 11 -348 -48 -425 -207 -30 -64 -31 -68 -31 -215 l0
-150 61 -130 c136 -287 178 -458 178 -730 1 -177 -1 -198 -28 -305 -40 -160
-79 -268 -142 -390 -83 -161 -73 -155 -147 -84 -364 351 -377 363 -440 394
l-65 32 -173 -4 c-199 -3 -235 -15 -327 -108 -88 -87 -107 -149 -107 -340 0
-223 -4 -216 251 -478 108 -112 195 -204 193 -206 -31 -27 -207 -88 -332 -115
-223 -48 -367 -48 -595 -1 -578 120 -1041 544 -1237 1134 -318 959 385 1998
1426 2106 127 13 267 -2 544 -57 l230 -46 275 -4 c218 -4 299 -2 390 11 469
66 863 279 1305 706 397 384 395 383 529 315 57 -29 81 -35 131 -35 72 0 66 5
155 -128 578 -864 822 -1900 680 -2878 -163 -1115 -762 -2124 -1663 -2802
-878 -660 -1994 -961 -3032 -816 -1884 261 -3370 1736 -3645 3618 -80 550 -42
1102 116 1656 477 1672 1877 2869 3609 3085 212 26 554 33 755 14z"/>
  </g>
</svg>
