<?xml version="1.0" encoding="UTF-8" standalone="no"?>
<svg xmlns="http://www.w3.org/2000/svg" version="1.2" baseProfile="tiny" viewBox="0.00 0.00 316.00 316.00" width="316.00" height="316.00">
<path fill="#000000" d="
  M 162.99 109.86
  Q 248.85 109.86 254.75 109.92
  C 264.58 110.03 272.04 118.26 271.93 127.99
  Q 271.89 131.62 271.83 184.98
  Q 271.82 190.39 266.55 195.81
  Q 261.80 200.70 254.81 200.72
  A 1.15 1.15 0.0 0 0 253.66 201.87
  L 253.66 209.21
  A 0.88 0.87 -0.0 0 1 252.78 210.08
  L 227.57 210.08
  A 0.96 0.96 0.0 0 1 226.61 209.12
  L 226.61 201.65
  A 0.90 0.90 0.0 0 0 225.71 200.75
  Q 215.15 200.66 162.99 200.67
  Q 110.84 200.67 100.27 200.75
  A 0.90 0.90 0.0 0 0 99.37 201.65
  L 99.37 209.12
  A 0.96 0.96 0.0 0 1 98.41 210.08
  L 73.20 210.08
  A 0.88 0.87 -0.0 0 1 72.32 209.21
  L 72.32 201.87
  A 1.15 1.15 0.0 0 0 71.17 200.72
  Q 64.18 200.70 59.43 195.81
  Q 54.16 190.39 54.15 184.98
  Q 54.09 131.62 54.05 127.99
  C 53.94 118.26 61.40 110.03 71.23 109.93
  Q 77.13 109.86 162.99 109.86
  Z
  M 90.3332 137.9439
  A 0.74 0.74 0.0 0 0 89.5957 137.2013
  L 77.4158 137.1588
  A 0.74 0.74 0.0 0 0 76.6732 137.8962
  L 76.6468 145.4561
  A 0.74 0.74 0.0 0 0 77.3843 146.1987
  L 89.5642 146.2412
  A 0.74 0.74 0.0 0 0 90.3068 145.5038
  L 90.3332 137.9439
  Z
  M 144.7370 137.7156
  A 0.50 0.50 0.0 0 0 144.2379 137.2147
  L 104.4579 137.1453
  A 0.50 0.50 0.0 0 0 103.9570 137.6444
  L 103.9430 145.6844
  A 0.50 0.50 0.0 0 0 104.4421 146.1853
  L 144.2221 146.2547
  A 0.50 0.50 0.0 0 0 144.7230 145.7556
  L 144.7370 137.7156
  Z
  M 249.34 137.91
  A 0.68 0.68 0.0 0 0 248.66 137.23
  L 168.28 137.23
  A 0.68 0.68 0.0 0 0 167.60 137.91
  L 167.60 172.83
  A 0.68 0.68 0.0 0 0 168.28 173.51
  L 248.66 173.51
  A 0.68 0.68 0.0 0 0 249.34 172.83
  L 249.34 137.91
  Z
  M 85.7856 156.1920
  A 0.87 0.87 0.0 0 0 84.9141 155.3236
  L 77.5141 155.3365
  A 0.87 0.87 0.0 0 0 76.6456 156.2080
  L 76.6744 172.6880
  A 0.87 0.87 0.0 0 0 77.5459 173.5564
  L 84.9459 173.5435
  A 0.87 0.87 0.0 0 0 85.8144 172.6720
  L 85.7856 156.1920
  Z
  M 108.5958 156.2920
  A 0.97 0.97 0.0 0 0 107.6241 155.3237
  L 100.3441 155.3364
  A 0.97 0.97 0.0 0 0 99.3758 156.3081
  L 99.4042 172.5880
  A 0.97 0.97 0.0 0 0 100.3759 173.5563
  L 107.6559 173.5436
  A 0.97 0.97 0.0 0 0 108.6242 172.5719
  L 108.5958 156.2920
  Z
  M 131.2979 156.4062
  A 1.09 1.09 0.0 0 0 130.2022 155.3220
  L 123.2623 155.3583
  A 1.09 1.09 0.0 0 0 122.1780 156.4540
  L 122.2621 172.5138
  A 1.09 1.09 0.0 0 0 123.3578 173.5980
  L 130.2977 173.5617
  A 1.09 1.09 0.0 0 0 131.3820 172.4660
  L 131.2979 156.4062
  Z
  M 153.93 155.96
  A 0.61 0.61 0.0 0 0 153.32 155.35
  L 145.46 155.35
  A 0.61 0.61 0.0 0 0 144.85 155.96
  L 144.85 172.92
  A 0.61 0.61 0.0 0 0 145.46 173.53
  L 153.32 173.53
  A 0.61 0.61 0.0 0 0 153.93 172.92
  L 153.93 155.96
  Z"
/>
</svg>
