<?xml version="1.0" encoding="UTF-8" standalone="no"?>
<svg
   version="1.2"
   viewBox="0 0 240 240"
   width="240"
   height="240"
   id="svg1"
   sodipodi:docname="dac.svg"
   inkscape:version="1.4.3 (0d15f75042, 2025-12-25)"
   xmlns:inkscape="http://www.inkscape.org/namespaces/inkscape"
   xmlns:sodipodi="http://sodipodi.sourceforge.net/DTD/sodipodi-0.dtd"
   xmlns="http://www.w3.org/2000/svg"
   xmlns:svg="http://www.w3.org/2000/svg">
  <defs
     id="defs1" />
  <sodipodi:namedview
     id="namedview1"
     pagecolor="#ffffff"
     bordercolor="#000000"
     borderopacity="0.25"
     inkscape:showpageshadow="2"
     inkscape:pageopacity="0.0"
     inkscape:pagecheckerboard="0"
     inkscape:deskcolor="#d1d1d1"
     inkscape:zoom="3.6202532"
     inkscape:cx="103.72203"
     inkscape:cy="96.678322"
     inkscape:window-width="3440"
     inkscape:window-height="1354"
     inkscape:window-x="0"
     inkscape:window-y="0"
     inkscape:window-maximized="1"
     inkscape:current-layer="svg1" />
  <path
     fill="#000000"
     d="m 120,69.889998 q 85.86,0 91.76,0.06 c 9.83,0.11 17.29,8.34 17.18,18.07 q -0.04,3.63 -0.1,56.990002 -0.01,5.41 -5.28,10.83 -4.75,4.89 -11.74,4.91 a 1.15,1.15 0 0 0 -1.15,1.15 v 7.34 a 0.88,0.87 0 0 1 -0.88,0.87 h -25.21 a 0.96,0.96 0 0 1 -0.96,-0.96 v -7.47 a 0.9,0.9 0 0 0 -0.9,-0.9 q -10.56,-0.09 -62.72,-0.08 -52.149999,0 -62.719999,0.08 a 0.9,0.9 0 0 0 -0.9,0.9 v 7.47 a 0.96,0.96 0 0 1 -0.96,0.96 h -25.21 a 0.88,0.87 0 0 1 -0.88,-0.87 v -7.34 a 1.15,1.15 0 0 0 -1.15,-1.15 q -6.99,-0.02 -11.740001,-4.91 -5.269999,-5.42 -5.279999,-10.83 -0.06,-53.360002 -0.1,-56.990002 c -0.11,-9.73 7.349999,-17.96 17.18,-18.06 q 5.9,-0.07 91.759999,-0.07 z m -72.656799,28.0839 a 0.74,0.74 0 0 0 -0.7375,-0.7426 l -12.1799,-0.0425 a 0.74,0.74 0 0 0 -0.7426,0.7374 l -0.0264,7.559902 a 0.74,0.74 0 0 0 0.7375,0.7426 l 12.1799,0.0425 a 0.74,0.74 0 0 0 0.7426,-0.7374 z m 54.403799,-0.2283 a 0.5,0.5 0 0 0 -0.4991,-0.5009 l -39.779999,-0.0694 a 0.5,0.5 0 0 0 -0.5009,0.4991 l -0.014,8.040002 a 0.5,0.5 0 0 0 0.4991,0.5009 l 39.779999,0.0694 a 0.5,0.5 0 0 0 0.5009,-0.4991 z m 104.603,0.1944 a 0.68,0.68 0 0 0 -0.68,-0.68 h -80.38 a 0.68,0.68 0 0 0 -0.68,0.68 V 132.86 a 0.68,0.68 0 0 0 0.68,0.68 h 80.38 a 0.68,0.68 0 0 0 0.68,-0.68 z M 42.795601,116.222 a 0.87,0.87 0 0 0 -0.8715,-0.8684 l -7.4,0.0129 a 0.87,0.87 0 0 0 -0.8685,0.8715 l 0.0288,16.48 a 0.87,0.87 0 0 0 0.8715,0.8684 l 7.4,-0.0129 a 0.87,0.87 0 0 0 0.8685,-0.8715 z m 22.8102,0.1 a 0.97,0.97 0 0 0 -0.9717,-0.9683 l -7.28,0.0127 a 0.97,0.97 0 0 0 -0.9683,0.9717 l 0.0284,16.2799 a 0.97,0.97 0 0 0 0.9717,0.9683 l 7.28,-0.0127 a 0.97,0.97 0 0 0 0.9683,-0.9717 z m 22.7021,0.1142 a 1.09,1.09 0 0 0 -1.0957,-1.0842 l -6.9399,0.0363 a 1.09,1.09 0 0 0 -1.0843,1.0957 l 0.0841,16.0598 a 1.09,1.09 0 0 0 1.0957,1.0842 l 6.9399,-0.0363 a 1.09,1.09 0 0 0 1.0843,-1.0957 z M 110.94,115.99 a 0.61,0.61 0 0 0 -0.61,-0.61 h -7.86 a 0.61,0.61 0 0 0 -0.61,0.61 v 16.96 a 0.61,0.61 0 0 0 0.61,0.61 h 7.86 a 0.61,0.61 0 0 0 0.61,-0.61 z"
     id="path1" />
</svg>
