<?xml version="1.0" encoding="utf-8"?>
<!-- Svg Vector Icons : http://www.onlinewebfonts.com/icon -->
<!DOCTYPE svg PUBLIC "-//W3C//DTD SVG 1.1//EN" "http://www.w3.org/Graphics/SVG/1.1/DTD/svg11.dtd">
<svg version="1.1" xmlns="http://www.w3.org/2000/svg" xmlns:xlink="http://www.w3.org/1999/xlink" x="0px" y="0px" viewBox="0 0 256 256" enable-background="new 0 0 256 256" xml:space="preserve">
<metadata> Svg Vector Icons : http://www.onlinewebfonts.com/icon </metadata>
<g><g><path fill="#000000" d="M169.3,226.5c0,0-3.6-3.7-8-7.8s-3.8-7-3.8-7l-1.2-16.1H99.8l-1.2,16.1c0,0,0.6,3-3.9,7c-4.5,4-8,7.8-8,7.8s-0.5,0.9-0.5,2.2c0,1.3,0.7,1.3,3.8,1.3h37.3h1.4H166c3.1,0,3.9,0,3.9-1.3C169.8,227.4,169.3,226.5,169.3,226.5L169.3,226.5z M246,186.7c0,4.9-4.6,8.9-10.2,8.9H20.2c-5.6,0-10.2-4-10.2-8.9V34.9C10,30,14.6,26,20.2,26h215.6c5.6,0,10.2,4,10.2,8.9V186.7L246,186.7z M133.4,181.5c0-3.1-2.5-5.5-5.5-5.5c-3,0-5.5,2.5-5.5,5.5c0,3.1,2.5,5.5,5.5,5.5C131,187.1,133.4,184.6,133.4,181.5L133.4,181.5z M17.9,170.5h220.2V33.6H17.9V170.5z"/><path fill="#000000" d="M129.3,141.1c4-1,8-3,10-5.1c0,2,0,3-1,4c0,2-1,3-1,4c0,1,0,2,0,2c-4-1-6-1-11,0c-4,0-5,0-6,0c0-1,0-1,0-2c0-1,0-2-1-3C122.3,141.1,125.3,141.1,129.3,141.1z"/><path fill="#000000" d="M113.3,125.9c-2-1-3-2-4-3l0,0c1,1,2,3,3,5.1c1,1,1,2,2,3c1,1,1,2,3,4c0,0,0,1,1,1c1,0,1,0,2-1c1-1,0-3,0-3C118.3,131,114.3,128,113.3,125.9z"/><path fill="#000000" d="M101.2,120.9c-1-3,0-4,1-8.1c2-4,4-8.1,6-13.2c4-5.1,7-8.1,7-12.2c-1-15.2-2-23.3,5-26.3c6-3,12-1,14,0c1,0,3,1,4,3c1,2,3,4,3,7.1c1,6.1-1,4,1,11.1c2,8.1,6,11.1,10,17.2c4,6.1,8,15.2,7,20.3c0,1,0,1-1,2l0,0h-1l0,0c0,0,0,0-1,0c0-1-1-1-2-2c-1,0-2,0-2,0s-1,0-2,0h-1l0,0c1-1,2-5.1,1-8.1c0-3-1-5.1-4-8.1c-1-1-3-2-3-2s2,1,4,3c2,3,3,6.1,2,9.1c0,2,0,3-1,4c0,1-1,2-1,2c-1,0-1,0-2,0c-1,0-1,1-1,1l1-1c1,0,2,0,3,0s2,0,3,0c1,0,2,1,2,1l0,0l-1,1c0,0,0,1-1,1c0,0-1,1-2,2c-1,0-1,0-2,0c0,0,0,0-1,0c-1,0-1,0-2-1l0,0l0,0c0,0,0,0,0-1l0,0c0-1,0-2-1-3l-1-1c0-1,0-2,0-3c0-4,0-7.1-1-10.1c-1-3-2-4-3-7.1c-2-5.1-2-7.1-4-10.1c-1-2-1-3-2-4c1-1,1-2,1-3s-1-2-2-3c0,0,1-1,1-2c0-2,0-3-1-5.1c-1-2-2-2-3-2c-2,0-4,2-4,3c-1,1,0,1,0,3c0,0,0,0,0,1c-1,0-1,0-2,0h-1c0,0,0,0-1,0c0,0,0,0-1,0v-1c0-2-1-2-1-4c-1-1-2-1-3-1c0,0-1,1-1,2c0,1,0,1,0,2c0,2,0,3,1,4v1l0,0c-1,1-2,2-2,3c0,1,1,2,2,3c0,1,0,2,0,3c0,1-1,2-2,4c0,1-1,1-1,2s0,1,0,2c0,1,3,2,2,2c0,0-2,1-3,1c-1,0-1,1-2,2c-1,2-3,5.1-3,7.1c2,6.1,1,7.1,1,11.1c0,1,0,2,0,2c0-1,0-2-1-2c-1-1-1-3-1-5.1s1-4,2-6.1c1-3,2-4,2-4s-1,2-2,3c-1,2-2,5.1-2,8.1c0,2,0,4,1,5.1c0,0,0,1,1,1c-2-2-3-2-3-2C103.2,119.8,101.2,119.8,101.2,120.9z"/><path fill="#000000" d="M140.4,89.5c1,1,2,1,2,1c1-1,0-2,0-2c0-1-1,0-2-1c-1-1-1-1-1,0C138.3,86.4,139.3,88.4,140.4,89.5z"/><path fill="#000000" d="M134.3,71.2c-1,0-1,0-1,0S133.3,71.2,134.3,71.2l1,1l1,1v-1C135.3,72.2,134.3,71.2,134.3,71.2z"/><path fill="#000000" d="M133.3,66.2c1,0,2-1,2-1c0-1-1-2-1-2h-1C132.3,64.1,132.3,66.2,133.3,66.2z"/><path fill="#000000" d="M121.3,71.2c0,0,1,0,2,1c1,1,1,1,1,1s0-1-1-2C122.3,71.2,121.3,71.2,121.3,71.2z"/><path fill="#000000" d="M164.4,134c-1-1-4-3-5-5.1c-1-1,0-3-1-5.1c-1-1-2-1-2-1s-1,2-2,2c0,1-2,1-2,2c-1,1-1,1-3,1c-2,0-2-1-3-1c-1,0-1-1-1-2c0-1,0-2,0-2s-1,0-2,0c-1,0-1,0-2,1c-1,0-1,2-1,5.1c0,2,0,4,0,6.1c0,4-1,7.1-1,9.1c0,3,1,4,2,5.1c1,1,2,1,5,1s4-1,6-2c1-1,2-2,6-5.1c3-2,7-4,8-5.1c0,0,1-1,1-2C166.4,135,165.4,135,164.4,134z"/><path fill="#000000" d="M115.3,135c-2-4-3-5.1-4-7.1c-2-3-5-7.1-7-7.1c-1,0-2,1-3,2c-1,1-2,3-4,4c-2,1-6,1-7,2c-1,1,0,3,0,7.1c0,2,0,3,0,4s0,2,0,3c1,2,2,2,11,4c4,1,9,3,11,4c3,0,3-1,5-2c2-2,2-1,2-4C120.3,140.1,117.3,139.1,115.3,135z"/><path fill="#000000" d="M119.3,88.4c-1-1-3-2-3-4c0-2,1-2,2-3c0,0,0,0,1,0c0,0-1,0-1-1c0,0-1-1-1-2c0-1,0-1,0-2l1-1c1,0,1,0,2,1c0,0,1,1,1,2c0,1,0,1,0,2c0,0,0,0,1,0s1,0,2,0c1,0,3,0,4,1c0,0,0,0,1,0c0-1,0-1,0-2s0-2,1-2c0,0,1,0,2,0c1,0,2,1,2,3c0,1,0,1,0,2s-1,1-2,1c2,1,4,1,4,3c0,2-1,4-3,4c-2,1-5,3-7,3c-1,0-2,0-3,0C122.3,91.5,121.3,89.5,119.3,88.4z"/><path fill="#000000" d="M132.3,77.3L132.3,77.3C133.3,77.3,133.3,77.3,132.3,77.3C132.3,76.3,132.3,76.3,132.3,77.3C131.3,76.3,132.3,76.3,132.3,77.3z"/><path fill="#000000" d="M126.3,80.4c0,0,1,0,1,1c0,0,0,0,1,0v-1C127.3,80.4,126.3,79.3,126.3,80.4z"/><path fill="#000000" d="M122.3,80.4C122.3,80.4,122.3,81.4,122.3,80.4c1,0,1,0,1,0C124.3,80.4,123.3,80.4,122.3,80.4L122.3,80.4z"/><path fill="#000000" d="M120.3,77.3C121.3,77.3,120.3,78.3,120.3,77.3C121.3,77.3,121.3,77.3,120.3,77.3C120.3,76.3,120.3,76.3,120.3,77.3C120.3,76.3,120.3,76.3,120.3,77.3z"/><path fill="#000000" d="M118.3,86.4c1,0,1,1,2,1h1c1,0,2,0,2,0c1,0,3-1,5-1c2-1,2-1,3-2c1-1,3-1,2-2c-1,0-1,0-3,1c-2,1-3,2-4,2c-1,0-2,1-2,1c-1,0-2,0-2,0c-1,0-1,0-2,0c0,0-1,0-1-1c-1,0-2-1-2-2l0,0C118.3,86.4,118.3,86.4,118.3,86.4z"/></g></g>
</svg>