<?xml version="1.0" encoding="UTF-8"?>
<svg xmlns="http://www.w3.org/2000/svg" xmlns:xlink="http://www.w3.org/1999/xlink" width="120px" height="158px" viewBox="0 0 120 157" version="1.1">
<g id="surface1">
<path style="fill-rule:nonzero;fill:rgb(23.921569%,65.098041%,21.960784%);fill-opacity:1;stroke-width:15.3697;stroke-linecap:round;stroke-linejoin:round;stroke:rgb(10.980392%,31.764707%,10.980392%);stroke-opacity:1;stroke-miterlimit:4;" d="M 262.000781 307.123567 C 294.267188 295.138854 311.101172 272.071338 311.101172 232.371975 C 311.101172 192.657325 277.646484 157.666242 235.828125 157.605096 C 191.709375 157.528662 158.4375 192.519745 158.955469 232.371975 C 159.488672 272.208917 178.501172 298.73121 208.924219 308.315924 L 155.040234 440.881529 C 82.905469 422.216561 9.567188 337.13121 9.567188 232.371975 C 9.567188 108.275159 109.260938 7.689172 234.228516 7.689172 C 359.196094 7.689172 460.504688 108.275159 460.504688 232.371975 C 460.504688 338.751592 387.851953 422.659873 314.19375 441.248408 Z M 262.000781 307.123567 " transform="matrix(0.25641,0,0,0.255534,0,0)"/>
<path style=" stroke:none;fill-rule:nonzero;fill:rgb(100%,100%,100%);fill-opacity:1;" d="M 11.039062 129.625 C 11.039062 131.539062 10.550781 133.03125 9.578125 134.105469 C 8.605469 135.171875 7.246094 135.703125 5.496094 135.703125 C 3.816406 135.703125 2.480469 135.15625 1.484375 134.0625 C 0.496094 132.96875 0 131.488281 0 129.625 C 0 127.71875 0.484375 126.238281 1.453125 125.1875 C 2.429688 124.125 3.796875 123.597656 5.554688 123.597656 C 6.640625 123.597656 7.601562 123.839844 8.433594 124.328125 C 9.265625 124.816406 9.910156 125.519531 10.355469 126.433594 C 10.8125 127.34375 11.039062 128.40625 11.039062 129.625 Z M 3.875 129.625 C 3.875 130.628906 4.003906 131.394531 4.257812 131.925781 C 4.511719 132.449219 4.9375 132.710938 5.535156 132.710938 C 6.128906 132.710938 6.542969 132.449219 6.785156 131.925781 C 7.03125 131.394531 7.15625 130.628906 7.15625 129.625 C 7.15625 128.625 7.03125 127.875 6.785156 127.363281 C 6.539062 126.855469 6.113281 126.601562 5.515625 126.601562 C 4.929688 126.601562 4.511719 126.855469 4.257812 127.363281 C 4.003906 127.867188 3.875 128.621094 3.875 129.625 Z M 3.875 129.625 "/>
<path style=" stroke:none;fill-rule:nonzero;fill:rgb(100%,100%,100%);fill-opacity:1;" d="M 19.847656 135.703125 C 19.285156 135.703125 18.785156 135.609375 18.34375 135.414062 C 17.898438 135.214844 17.460938 134.859375 17.023438 134.351562 L 16.847656 134.351562 C 16.964844 135.171875 17.023438 135.679688 17.023438 135.878906 L 17.023438 140.574219 L 13.207031 140.574219 L 13.207031 123.804688 L 16.3125 123.804688 L 16.847656 125.289062 L 17.023438 125.289062 C 17.734375 124.160156 18.714844 123.597656 19.964844 123.597656 C 21.1875 123.597656 22.148438 124.132812 22.84375 125.207031 C 23.539062 126.28125 23.886719 127.753906 23.886719 129.625 C 23.886719 131.511719 23.523438 132.996094 22.792969 134.082031 C 22.070312 135.164062 21.089844 135.703125 19.847656 135.703125 Z M 18.566406 126.765625 C 18.007812 126.765625 17.613281 126.980469 17.386719 127.40625 C 17.164062 127.824219 17.042969 128.453125 17.023438 129.285156 L 17.023438 129.605469 C 17.023438 130.609375 17.152344 131.335938 17.40625 131.78125 C 17.660156 132.230469 18.058594 132.453125 18.605469 132.453125 C 19.09375 132.453125 19.449219 132.230469 19.671875 131.792969 C 19.890625 131.34375 20.003906 130.609375 20.003906 129.582031 C 20.003906 128.578125 19.890625 127.859375 19.671875 127.425781 C 19.449219 126.984375 19.082031 126.765625 18.566406 126.765625 Z M 18.566406 126.765625 "/>
<path style=" stroke:none;fill-rule:nonzero;fill:rgb(100%,100%,100%);fill-opacity:1;" d="M 31.394531 135.703125 C 29.550781 135.703125 28.121094 135.1875 27.097656 134.15625 C 26.082031 133.117188 25.578125 131.640625 25.578125 129.726562 C 25.578125 127.753906 26.046875 126.238281 26.992188 125.1875 C 27.933594 124.125 29.28125 123.597656 31.03125 123.597656 C 32.699219 123.597656 33.984375 124.058594 34.890625 124.980469 C 35.800781 125.894531 36.253906 127.214844 36.253906 128.941406 L 36.253906 130.738281 L 29.433594 130.738281 C 29.457031 131.394531 29.683594 131.90625 30.105469 132.277344 C 30.535156 132.648438 31.117188 132.835938 31.851562 132.835938 C 32.523438 132.835938 33.136719 132.769531 33.699219 132.636719 C 34.265625 132.5 34.875 132.269531 35.535156 131.945312 L 35.535156 134.847656 C 34.933594 135.171875 34.316406 135.394531 33.679688 135.519531 C 33.039062 135.640625 32.28125 135.703125 31.394531 135.703125 Z M 31.167969 126.34375 C 30.722656 126.34375 30.34375 126.492188 30.039062 126.796875 C 29.738281 127.09375 29.5625 127.558594 29.511719 128.199219 L 32.789062 128.199219 C 32.777344 127.636719 32.625 127.183594 32.332031 126.847656 C 32.046875 126.511719 31.65625 126.34375 31.167969 126.34375 Z M 31.167969 126.34375 "/>
<path style=" stroke:none;fill-rule:nonzero;fill:rgb(100%,100%,100%);fill-opacity:1;" d="M 45.414062 135.496094 L 45.414062 129.117188 C 45.414062 128.339844 45.304688 127.757812 45.089844 127.363281 C 44.882812 126.964844 44.542969 126.765625 44.074219 126.765625 C 43.429688 126.765625 42.964844 127.039062 42.679688 127.582031 C 42.394531 128.125 42.25 129.058594 42.25 130.378906 L 42.25 135.496094 L 38.433594 135.496094 L 38.433594 123.804688 L 41.3125 123.804688 L 41.789062 125.246094 L 42.015625 125.246094 C 42.339844 124.699219 42.789062 124.285156 43.363281 124.007812 C 43.941406 123.734375 44.605469 123.597656 45.355469 123.597656 C 46.578125 123.597656 47.527344 123.972656 48.203125 124.722656 C 48.886719 125.472656 49.230469 126.527344 49.230469 127.890625 L 49.230469 135.496094 Z M 45.414062 135.496094 "/>
<path style=" stroke:none;fill-rule:nonzero;fill:rgb(100%,100%,100%);fill-opacity:1;" d="M 64.59375 132.246094 C 64.59375 133.359375 64.210938 134.21875 63.441406 134.816406 C 62.675781 135.40625 61.574219 135.703125 60.144531 135.703125 C 58.703125 135.703125 57.550781 135.472656 56.679688 135.011719 L 56.679688 132.917969 C 57.945312 133.535156 59.128906 133.847656 60.222656 133.847656 C 61.632812 133.847656 62.339844 133.394531 62.339844 132.492188 C 62.339844 132.203125 62.261719 131.964844 62.105469 131.769531 C 61.949219 131.578125 61.691406 131.378906 61.335938 131.171875 C 60.976562 130.964844 60.476562 130.730469 59.839844 130.472656 C 58.597656 129.960938 57.753906 129.453125 57.3125 128.941406 C 56.875 128.433594 56.660156 127.773438 56.660156 126.960938 C 56.660156 125.984375 57.027344 125.226562 57.769531 124.691406 C 58.519531 124.148438 59.535156 123.875 60.816406 123.875 C 62.085938 123.875 63.285156 124.148438 64.417969 124.691406 L 63.675781 126.519531 C 62.511719 126.007812 61.53125 125.753906 60.738281 125.753906 C 59.527344 125.753906 58.921875 126.117188 58.921875 126.847656 C 58.921875 127.207031 59.078125 127.507812 59.390625 127.757812 C 59.710938 128.003906 60.398438 128.34375 61.460938 128.777344 C 62.351562 129.144531 63 129.476562 63.402344 129.777344 C 63.808594 130.082031 64.105469 130.433594 64.300781 130.832031 C 64.496094 131.222656 64.59375 131.695312 64.59375 132.246094 Z M 64.59375 132.246094 "/>
<path style=" stroke:none;fill-rule:nonzero;fill:rgb(100%,100%,100%);fill-opacity:1;" d="M 76.640625 129.769531 C 76.640625 131.632812 76.1875 133.089844 75.285156 134.136719 C 74.378906 135.179688 73.121094 135.703125 71.507812 135.703125 C 70.496094 135.703125 69.605469 135.464844 68.832031 134.980469 C 68.058594 134.5 67.460938 133.808594 67.046875 132.90625 C 66.628906 132.003906 66.421875 130.960938 66.421875 129.769531 C 66.421875 127.917969 66.871094 126.472656 67.765625 125.433594 C 68.664062 124.394531 69.929688 123.875 71.566406 123.875 C 73.125 123.875 74.363281 124.410156 75.273438 125.476562 C 76.183594 126.535156 76.640625 127.964844 76.640625 129.769531 Z M 68.78125 129.769531 C 68.78125 132.40625 69.703125 133.722656 71.546875 133.722656 C 73.367188 133.722656 74.277344 132.40625 74.277344 129.769531 C 74.277344 127.160156 73.359375 125.855469 71.527344 125.855469 C 70.5625 125.855469 69.863281 126.195312 69.425781 126.867188 C 68.996094 127.542969 68.78125 128.507812 68.78125 129.769531 Z M 68.78125 129.769531 "/>
<path style=" stroke:none;fill-rule:nonzero;fill:rgb(100%,100%,100%);fill-opacity:1;" d="M 86.902344 135.496094 L 86.578125 134 L 86.460938 134 C 86.140625 134.53125 85.6875 134.945312 85.09375 135.25 C 84.507812 135.550781 83.839844 135.703125 83.082031 135.703125 C 81.777344 135.703125 80.800781 135.359375 80.15625 134.671875 C 79.511719 133.984375 79.1875 132.941406 79.1875 131.542969 L 79.1875 124.082031 L 81.503906 124.082031 L 81.503906 131.121094 C 81.503906 131.996094 81.671875 132.652344 82.011719 133.09375 C 82.347656 133.527344 82.878906 133.742188 83.601562 133.742188 C 84.5625 133.742188 85.269531 133.441406 85.71875 132.835938 C 86.175781 132.222656 86.402344 131.199219 86.402344 129.769531 L 86.402344 124.082031 L 88.707031 124.082031 L 88.707031 135.496094 Z M 86.902344 135.496094 "/>
<path style=" stroke:none;fill-rule:nonzero;fill:rgb(100%,100%,100%);fill-opacity:1;" d="M 97.453125 123.875 C 97.914062 123.875 98.296875 123.910156 98.59375 123.976562 L 98.371094 126.238281 C 98.046875 126.15625 97.707031 126.113281 97.355469 126.113281 C 96.4375 126.113281 95.691406 126.429688 95.121094 127.066406 C 94.554688 127.699219 94.269531 128.519531 94.269531 129.53125 L 94.269531 135.496094 L 91.976562 135.496094 L 91.976562 124.082031 L 93.773438 124.082031 L 94.074219 126.09375 L 94.191406 126.09375 C 94.550781 125.414062 95.015625 124.871094 95.589844 124.472656 C 96.167969 124.074219 96.789062 123.875 97.453125 123.875 Z M 97.453125 123.875 "/>
<path style=" stroke:none;fill-rule:nonzero;fill:rgb(100%,100%,100%);fill-opacity:1;" d="M 104.960938 135.703125 C 103.328125 135.703125 102.082031 135.203125 101.230469 134.195312 C 100.386719 133.183594 99.960938 131.738281 99.960938 129.851562 C 99.960938 127.933594 100.40625 126.457031 101.289062 125.421875 C 102.179688 124.390625 103.464844 123.875 105.144531 123.875 C 106.285156 123.875 107.308594 124.097656 108.222656 124.546875 L 107.527344 126.496094 C 106.558594 126.097656 105.757812 125.898438 105.125 125.898438 C 103.257812 125.898438 102.324219 127.210938 102.324219 129.832031 C 102.324219 131.109375 102.554688 132.074219 103.019531 132.722656 C 103.484375 133.359375 104.167969 133.679688 105.066406 133.679688 C 106.089844 133.679688 107.054688 133.414062 107.96875 132.875 L 107.96875 134.992188 C 107.558594 135.246094 107.117188 135.429688 106.648438 135.539062 C 106.1875 135.648438 105.625 135.703125 104.960938 135.703125 Z M 104.960938 135.703125 "/>
<path style=" stroke:none;fill-rule:nonzero;fill:rgb(100%,100%,100%);fill-opacity:1;" d="M 115.238281 135.703125 C 113.5625 135.703125 112.246094 135.1875 111.296875 134.15625 C 110.351562 133.117188 109.878906 131.6875 109.878906 129.871094 C 109.878906 128.007812 110.320312 126.542969 111.199219 125.476562 C 112.078125 124.410156 113.285156 123.875 114.820312 123.875 C 116.246094 123.875 117.371094 124.332031 118.199219 125.246094 C 119.023438 126.164062 119.4375 127.421875 119.4375 129.027344 L 119.4375 130.335938 L 112.242188 130.335938 C 112.273438 131.445312 112.558594 132.296875 113.09375 132.894531 C 113.625 133.488281 114.378906 133.785156 115.347656 133.785156 C 115.984375 133.785156 116.578125 133.722656 117.125 133.597656 C 117.675781 133.46875 118.269531 133.253906 118.898438 132.957031 L 118.898438 134.929688 C 118.339844 135.210938 117.773438 135.410156 117.203125 135.527344 C 116.628906 135.644531 115.976562 135.703125 115.238281 135.703125 Z M 114.820312 125.710938 C 114.089844 125.710938 113.503906 125.957031 113.0625 126.445312 C 112.625 126.933594 112.367188 127.644531 112.28125 128.582031 L 117.183594 128.582031 C 117.167969 127.640625 116.953125 126.925781 116.539062 126.445312 C 116.121094 125.957031 115.546875 125.710938 114.820312 125.710938 Z M 114.820312 125.710938 "/>
<path style=" stroke:none;fill-rule:nonzero;fill:rgb(100%,100%,100%);fill-opacity:1;" d="M 21.445312 156.695312 L 19.152344 156.695312 L 19.152344 145.277344 L 21.445312 145.277344 Z M 19.015625 142.253906 C 19.015625 141.820312 19.125 141.488281 19.347656 141.253906 C 19.574219 141.019531 19.898438 140.902344 20.316406 140.902344 C 20.71875 140.902344 21.03125 141.019531 21.25 141.253906 C 21.480469 141.488281 21.59375 141.820312 21.59375 142.253906 C 21.59375 142.667969 21.480469 142.996094 21.25 143.234375 C 21.03125 143.46875 20.71875 143.585938 20.316406 143.585938 C 19.898438 143.585938 19.574219 143.46875 19.347656 143.234375 C 19.125 142.996094 19.015625 142.667969 19.015625 142.253906 Z M 19.015625 142.253906 "/>
<path style=" stroke:none;fill-rule:nonzero;fill:rgb(100%,100%,100%);fill-opacity:1;" d="M 34.234375 156.695312 L 31.929688 156.695312 L 31.929688 149.675781 C 31.929688 148.796875 31.761719 148.136719 31.421875 147.703125 C 31.089844 147.269531 30.5625 147.054688 29.832031 147.054688 C 28.863281 147.054688 28.152344 147.355469 27.703125 147.960938 C 27.253906 148.566406 27.03125 149.582031 27.03125 151.007812 L 27.03125 156.695312 L 24.738281 156.695312 L 24.738281 145.277344 L 26.53125 145.277344 L 26.855469 146.777344 L 26.972656 146.777344 C 27.296875 146.230469 27.757812 145.8125 28.359375 145.515625 C 28.957031 145.21875 29.621094 145.074219 30.351562 145.074219 C 32.941406 145.074219 34.234375 146.464844 34.234375 149.253906 Z M 34.234375 156.695312 "/>
<path style=" stroke:none;fill-rule:nonzero;fill:rgb(100%,100%,100%);fill-opacity:1;" d="M 39.722656 156.695312 L 37.425781 156.695312 L 37.425781 145.277344 L 39.722656 145.277344 Z M 37.289062 142.253906 C 37.289062 141.820312 37.402344 141.488281 37.621094 141.253906 C 37.851562 141.019531 38.171875 140.902344 38.589844 140.902344 C 38.992188 140.902344 39.304688 141.019531 39.527344 141.253906 C 39.753906 141.488281 39.867188 141.820312 39.867188 142.253906 C 39.867188 142.667969 39.753906 142.996094 39.527344 143.234375 C 39.304688 143.46875 38.992188 143.585938 38.589844 143.585938 C 38.171875 143.585938 37.851562 143.46875 37.621094 143.234375 C 37.402344 142.996094 37.289062 142.667969 37.289062 142.253906 Z M 37.289062 142.253906 "/>
<path style=" stroke:none;fill-rule:nonzero;fill:rgb(100%,100%,100%);fill-opacity:1;" d="M 47.03125 154.941406 C 47.59375 154.941406 48.152344 154.847656 48.710938 154.660156 L 48.710938 156.488281 C 48.457031 156.605469 48.128906 156.703125 47.726562 156.777344 C 47.328125 156.859375 46.914062 156.902344 46.488281 156.902344 C 44.3125 156.902344 43.226562 155.691406 43.226562 153.269531 L 43.226562 147.117188 L 41.75 147.117188 L 41.75 146.042969 L 43.332031 145.15625 L 44.113281 142.738281 L 45.53125 142.738281 L 45.53125 145.277344 L 48.605469 145.277344 L 48.605469 147.117188 L 45.53125 147.117188 L 45.53125 153.226562 C 45.53125 153.8125 45.667969 154.246094 45.941406 154.527344 C 46.21875 154.800781 46.582031 154.941406 47.03125 154.941406 Z M 47.03125 154.941406 "/>
<path style=" stroke:none;fill-rule:nonzero;fill:rgb(100%,100%,100%);fill-opacity:1;" d="M 53.152344 156.695312 L 50.859375 156.695312 L 50.859375 145.277344 L 53.152344 145.277344 Z M 50.722656 142.253906 C 50.722656 141.820312 50.832031 141.488281 51.054688 141.253906 C 51.28125 141.019531 51.605469 140.902344 52.019531 140.902344 C 52.425781 140.902344 52.738281 141.019531 52.957031 141.253906 C 53.1875 141.488281 53.300781 141.820312 53.300781 142.253906 C 53.300781 142.667969 53.1875 142.996094 52.957031 143.234375 C 52.738281 143.46875 52.425781 143.585938 52.019531 143.585938 C 51.605469 143.585938 51.28125 143.46875 51.054688 143.234375 C 50.832031 142.996094 50.722656 142.667969 50.722656 142.253906 Z M 50.722656 142.253906 "/>
<path style=" stroke:none;fill-rule:nonzero;fill:rgb(100%,100%,100%);fill-opacity:1;" d="M 63.199219 156.695312 L 62.738281 155.105469 L 62.660156 155.105469 C 62.140625 155.800781 61.617188 156.273438 61.089844 156.53125 C 60.5625 156.777344 59.886719 156.902344 59.058594 156.902344 C 58 156.902344 57.167969 156.597656 56.570312 155.992188 C 55.976562 155.386719 55.683594 154.53125 55.683594 153.421875 C 55.683594 152.246094 56.09375 151.359375 56.921875 150.757812 C 57.75 150.160156 59.007812 149.835938 60.699219 149.777344 L 62.5625 149.71875 L 62.5625 149.109375 C 62.5625 148.378906 62.402344 147.835938 62.074219 147.476562 C 61.757812 147.113281 61.257812 146.929688 60.582031 146.929688 C 60.03125 146.929688 59.5 147.015625 58.992188 147.1875 C 58.484375 147.359375 57.996094 147.5625 57.527344 147.796875 L 56.785156 146.0625 C 57.371094 145.738281 58.011719 145.496094 58.707031 145.332031 C 59.40625 145.160156 60.0625 145.074219 60.679688 145.074219 C 62.054688 145.074219 63.089844 145.390625 63.785156 146.023438 C 64.488281 146.65625 64.839844 147.648438 64.839844 149.003906 L 64.839844 156.695312 Z M 59.78125 155.042969 C 60.613281 155.042969 61.28125 154.800781 61.785156 154.308594 C 62.289062 153.816406 62.542969 153.125 62.542969 152.234375 L 62.542969 151.246094 L 61.160156 151.308594 C 60.078125 151.347656 59.289062 151.539062 58.796875 151.882812 C 58.308594 152.222656 58.0625 152.742188 58.0625 153.441406 C 58.0625 153.953125 58.207031 154.347656 58.492188 154.628906 C 58.78125 154.90625 59.210938 155.042969 59.78125 155.042969 Z M 59.78125 155.042969 "/>
<path style=" stroke:none;fill-rule:nonzero;fill:rgb(100%,100%,100%);fill-opacity:1;" d="M 72.0625 154.941406 C 72.621094 154.941406 73.183594 154.847656 73.742188 154.660156 L 73.742188 156.488281 C 73.488281 156.605469 73.160156 156.703125 72.753906 156.777344 C 72.359375 156.859375 71.945312 156.902344 71.515625 156.902344 C 69.34375 156.902344 68.253906 155.691406 68.253906 153.269531 L 68.253906 147.117188 L 66.78125 147.117188 L 66.78125 146.042969 L 68.363281 145.15625 L 69.144531 142.738281 L 70.558594 142.738281 L 70.558594 145.277344 L 73.632812 145.277344 L 73.632812 147.117188 L 70.558594 147.117188 L 70.558594 153.226562 C 70.558594 153.8125 70.695312 154.246094 70.96875 154.527344 C 71.25 154.800781 71.613281 154.941406 72.0625 154.941406 Z M 72.0625 154.941406 "/>
<path style=" stroke:none;fill-rule:nonzero;fill:rgb(100%,100%,100%);fill-opacity:1;" d="M 78.183594 156.695312 L 75.890625 156.695312 L 75.890625 145.277344 L 78.183594 145.277344 Z M 75.753906 142.253906 C 75.753906 141.820312 75.863281 141.488281 76.085938 141.253906 C 76.3125 141.019531 76.632812 140.902344 77.050781 140.902344 C 77.453125 140.902344 77.765625 141.019531 77.988281 141.253906 C 78.214844 141.488281 78.328125 141.820312 78.328125 142.253906 C 78.328125 142.667969 78.214844 142.996094 77.988281 143.234375 C 77.765625 143.46875 77.453125 143.585938 77.050781 143.585938 C 76.632812 143.585938 76.3125 143.46875 76.085938 143.234375 C 75.863281 142.996094 75.753906 142.667969 75.753906 142.253906 Z M 75.753906 142.253906 "/>
<path style=" stroke:none;fill-rule:nonzero;fill:rgb(100%,100%,100%);fill-opacity:1;" d="M 83.933594 156.695312 L 79.832031 145.277344 L 82.253906 145.277344 L 84.449219 151.914062 C 84.828125 153.03125 85.054688 153.933594 85.132812 154.621094 L 85.210938 154.621094 C 85.269531 154.125 85.5 153.222656 85.894531 151.914062 L 88.089844 145.277344 L 90.53125 145.277344 L 86.414062 156.695312 Z M 83.933594 156.695312 "/>
<path style=" stroke:none;fill-rule:nonzero;fill:rgb(100%,100%,100%);fill-opacity:1;" d="M 96.886719 156.902344 C 95.207031 156.902344 93.894531 156.386719 92.945312 155.351562 C 92 154.3125 91.527344 152.886719 91.527344 151.070312 C 91.527344 149.203125 91.96875 147.738281 92.847656 146.671875 C 93.722656 145.605469 94.929688 145.074219 96.46875 145.074219 C 97.894531 145.074219 99.019531 145.53125 99.84375 146.445312 C 100.671875 147.359375 101.085938 148.621094 101.085938 150.222656 L 101.085938 151.535156 L 93.890625 151.535156 C 93.921875 152.640625 94.207031 153.496094 94.738281 154.09375 C 95.273438 154.683594 96.023438 154.980469 96.996094 154.980469 C 97.632812 154.980469 98.222656 154.917969 98.769531 154.796875 C 99.324219 154.664062 99.917969 154.453125 100.546875 154.15625 L 100.546875 156.125 C 99.988281 156.410156 99.421875 156.609375 98.847656 156.726562 C 98.277344 156.84375 97.621094 156.902344 96.886719 156.902344 Z M 96.46875 146.910156 C 95.738281 146.910156 95.152344 147.152344 94.710938 147.640625 C 94.273438 148.132812 94.015625 148.84375 93.929688 149.777344 L 98.828125 149.777344 C 98.816406 148.835938 98.601562 148.125 98.183594 147.640625 C 97.769531 147.152344 97.195312 146.910156 96.46875 146.910156 Z M 96.46875 146.910156 "/>
<path style=" stroke:none;fill-rule:nonzero;fill:rgb(100%,100%,100%);fill-opacity:1;" d="M 105.636719 143.667969 L 106.121094 143.667969 C 106.363281 143.667969 106.554688 143.605469 106.699219 143.480469 C 106.847656 143.355469 106.921875 143.199219 106.921875 143.007812 C 106.921875 142.78125 106.855469 142.621094 106.726562 142.523438 C 106.597656 142.425781 106.394531 142.378906 106.113281 142.378906 L 105.636719 142.378906 Z M 107.59375 142.988281 C 107.59375 143.226562 107.527344 143.441406 107.398438 143.625 C 107.273438 143.808594 107.09375 143.945312 106.863281 144.035156 L 107.933594 145.808594 L 107.175781 145.808594 L 106.246094 144.21875 L 105.636719 144.21875 L 105.636719 145.808594 L 104.96875 145.808594 L 104.96875 141.804688 L 106.144531 141.804688 C 106.644531 141.804688 107.007812 141.902344 107.242188 142.097656 C 107.476562 142.292969 107.59375 142.589844 107.59375 142.988281 Z M 102.828125 143.804688 C 102.828125 143.207031 102.976562 142.644531 103.277344 142.121094 C 103.578125 141.597656 103.992188 141.183594 104.519531 140.882812 C 105.042969 140.578125 105.609375 140.425781 106.21875 140.425781 C 106.820312 140.425781 107.382812 140.578125 107.90625 140.875 C 108.433594 141.175781 108.847656 141.589844 109.152344 142.113281 C 109.457031 142.636719 109.605469 143.199219 109.605469 143.804688 C 109.605469 144.394531 109.460938 144.949219 109.167969 145.46875 C 108.878906 145.984375 108.46875 146.398438 107.945312 146.710938 C 107.417969 147.023438 106.84375 147.179688 106.21875 147.179688 C 105.59375 147.179688 105.023438 147.023438 104.496094 146.714844 C 103.96875 146.40625 103.558594 145.988281 103.265625 145.472656 C 102.972656 144.953125 102.828125 144.398438 102.828125 143.804688 Z M 103.300781 143.804688 C 103.300781 144.324219 103.433594 144.808594 103.695312 145.261719 C 103.953125 145.710938 104.3125 146.066406 104.761719 146.324219 C 105.214844 146.582031 105.699219 146.710938 106.21875 146.710938 C 106.742188 146.710938 107.226562 146.582031 107.671875 146.320312 C 108.121094 146.058594 108.476562 145.707031 108.738281 145.265625 C 109 144.820312 109.132812 144.332031 109.132812 143.804688 C 109.132812 143.285156 109.003906 142.800781 108.742188 142.355469 C 108.480469 141.910156 108.125 141.554688 107.679688 141.292969 C 107.234375 141.03125 106.746094 140.898438 106.21875 140.898438 C 105.695312 140.898438 105.210938 141.03125 104.761719 141.289062 C 104.3125 141.550781 103.957031 141.902344 103.695312 142.351562 C 103.433594 142.792969 103.300781 143.277344 103.300781 143.804688 Z M 103.300781 143.804688 "/>
</g>
</svg>
