<?xml version="1.0" encoding="iso-8859-1"?>
<!-- Uploaded to: SVG Repo, www.svgrepo.com, Generator: SVG Repo Mixer Tools -->
<!DOCTYPE svg PUBLIC "-//W3C//DTD SVG 1.1//EN" "http://www.w3.org/Graphics/SVG/1.1/DTD/svg11.dtd">
<svg fill="#000000" version="1.1" id="Capa_1" xmlns="http://www.w3.org/2000/svg" xmlns:xlink="http://www.w3.org/1999/xlink" 
	 width="800px" height="800px" viewBox="0 0 592.988 592.988"
	 xml:space="preserve">
<g>
	<g>
		<g>
			<path d="M122.388,285.984H70.373c-32.058,0-58.14,26.083-58.14,58.139v190.225c0,32.059,26.082,58.139,58.14,58.139h52.016
				c32.059,0,58.14-26.08,58.14-58.139V344.123C180.528,312.066,154.447,285.984,122.388,285.984z M137.688,534.348
				c0,8.449-6.85,15.299-15.3,15.299H70.373c-8.45,0-15.3-6.85-15.3-15.299V344.123c0-8.449,6.85-15.299,15.3-15.299h52.016
				c8.45,0,15.3,6.85,15.3,15.299V534.348z"/>
			<path d="M122.388,592.986H70.373c-32.334,0-58.64-26.306-58.64-58.639V344.123c0-32.334,26.306-58.639,58.64-58.639h52.016
				c32.334,0,58.64,26.305,58.64,58.639v190.225C181.028,566.681,154.723,592.986,122.388,592.986z M70.373,286.484
				c-31.783,0-57.64,25.857-57.64,57.639v190.225c0,31.782,25.857,57.639,57.64,57.639h52.016c31.783,0,57.64-25.856,57.64-57.639
				V344.123c0-31.782-25.857-57.639-57.64-57.639H70.373z M122.388,550.146H70.373c-8.712,0-15.8-7.087-15.8-15.799V344.123
				c0-8.712,7.088-15.799,15.8-15.799h52.016c8.712,0,15.8,7.087,15.8,15.799v190.225
				C138.188,543.06,131.101,550.146,122.388,550.146z M70.373,329.324c-8.161,0-14.8,6.639-14.8,14.799v190.225
				c0,8.16,6.639,14.799,14.8,14.799h52.016c8.161,0,14.8-6.639,14.8-14.799V344.123c0-8.16-6.639-14.799-14.8-14.799H70.373z"/>
		</g>
		<g>
			<path d="M322.502,592.486c32.059,0,58.141-26.08,58.141-58.139V58.64c0-32.059-26.082-58.14-58.141-58.14h-52.016
				c-32.059,0-58.14,26.082-58.14,58.14v475.708c0,32.059,26.082,58.139,58.14,58.139H322.502z M255.186,534.348V58.64
				c0-8.45,6.85-15.3,15.3-15.3h52.016c8.449,0,15.301,6.85,15.301,15.3v475.708c0,8.449-6.852,15.299-15.301,15.299h-52.016
				C262.036,549.646,255.186,542.797,255.186,534.348z"/>
			<path d="M322.502,592.986h-52.016c-32.334,0-58.64-26.306-58.64-58.639V58.64c0-32.334,26.306-58.64,58.64-58.64h52.016
				c32.335,0,58.641,26.306,58.641,58.64v475.708C381.143,566.681,354.837,592.986,322.502,592.986z M270.486,1
				c-31.783,0-57.64,25.857-57.64,57.64v475.708c0,31.782,25.857,57.639,57.64,57.639h52.016c31.783,0,57.641-25.856,57.641-57.639
				V58.64c0-31.783-25.857-57.64-57.641-57.64H270.486z M322.502,550.146h-52.016c-8.712,0-15.8-7.087-15.8-15.799V58.64
				c0-8.712,7.088-15.8,15.8-15.8h52.016c8.713,0,15.801,7.088,15.801,15.8v475.708C338.303,543.06,331.215,550.146,322.502,550.146
				z M270.486,43.84c-8.161,0-14.8,6.639-14.8,14.8v475.708c0,8.16,6.64,14.799,14.8,14.799h52.016
				c8.161,0,14.801-6.639,14.801-14.799V58.64c0-8.161-6.64-14.8-14.801-14.8H270.486z"/>
		</g>
		<g>
			<path d="M522.615,592.486c32.059,0,58.141-26.08,58.141-58.139V207.961c0-32.059-26.082-58.14-58.141-58.14H470.6
				c-32.057,0-58.139,26.082-58.139,58.14v326.386c0,32.059,26.082,58.141,58.139,58.141L522.615,592.486L522.615,592.486z
				 M455.301,534.348V207.961c0-8.45,6.85-15.3,15.299-15.3h52.016c8.451,0,15.301,6.85,15.301,15.3v326.386
				c0,8.449-6.85,15.301-15.301,15.301H470.6C462.15,549.646,455.301,542.797,455.301,534.348z"/>
			<path d="M470.6,592.988c-32.333,0-58.639-26.306-58.639-58.641V207.961c0-32.334,26.306-58.64,58.639-58.64h52.016
				c32.335,0,58.641,26.306,58.641,58.64v326.386c0,32.333-26.306,58.639-58.641,58.639L470.6,592.988z M470.6,150.321
				c-31.782,0-57.639,25.857-57.639,57.64v326.386c0,31.783,25.856,57.641,57.639,57.641l52.016-0.002
				c31.783,0,57.641-25.856,57.641-57.639V207.961c0-31.783-25.857-57.64-57.641-57.64H470.6z M522.615,550.148H470.6
				c-8.712-0.002-15.799-7.09-15.799-15.801V207.961c0-8.712,7.087-15.8,15.799-15.8h52.016c8.713,0,15.801,7.088,15.801,15.8
				v326.386C538.416,543.061,531.328,550.148,522.615,550.148z M470.6,193.161c-8.16,0-14.799,6.639-14.799,14.8v326.386
				c0,8.159,6.639,14.799,14.799,14.801h52.016c8.161,0,14.801-6.64,14.801-14.801V207.961c0-8.161-6.64-14.8-14.801-14.8H470.6z"/>
		</g>
	</g>
</g>
</svg>