<?xml version="1.0" encoding="iso-8859-1"?>
<!-- Uploaded to: SVG Repo, www.svgrepo.com, Generator: SVG Repo Mixer Tools -->
<!DOCTYPE svg PUBLIC "-//W3C//DTD SVG 1.1//EN" "http://www.w3.org/Graphics/SVG/1.1/DTD/svg11.dtd">
<svg fill="#000000" version="1.1" id="Capa_1" xmlns="http://www.w3.org/2000/svg" xmlns:xlink="http://www.w3.org/1999/xlink" 
	 width="800px" height="800px" viewBox="0 0 83.816 83.816"
	 xml:space="preserve">
<g>
	<path d="M24.908,59.816c1.47,0,2.667-1.196,2.667-2.668c0-1.471-1.196-2.666-2.667-2.666c-1.471,0-2.667,1.195-2.667,2.666
		C22.241,58.62,23.438,59.816,24.908,59.816z M24.908,56.482c0.368,0,0.667,0.299,0.667,0.666c0,0.369-0.299,0.668-0.667,0.668
		c-0.368,0-0.667-0.299-0.667-0.668C24.241,56.781,24.54,56.482,24.908,56.482z"/>
	<path d="M41.908,59.816c1.47,0,2.667-1.196,2.667-2.668c0-1.471-1.195-2.666-2.667-2.666c-1.471,0-2.667,1.195-2.667,2.666
		C39.241,58.62,40.438,59.816,41.908,59.816z M41.908,56.482c0.368,0,0.667,0.299,0.667,0.666c0,0.369-0.299,0.668-0.667,0.668
		c-0.368,0-0.667-0.299-0.667-0.668C41.241,56.781,41.54,56.482,41.908,56.482z"/>
	<path d="M58.908,59.816c1.47,0,2.666-1.196,2.666-2.668c0-1.471-1.195-2.666-2.666-2.666s-2.668,1.195-2.668,2.666
		C56.24,58.62,57.438,59.816,58.908,59.816z M58.908,56.482c0.367,0,0.666,0.299,0.666,0.666c0,0.369-0.299,0.668-0.666,0.668
		c-0.368,0-0.668-0.299-0.668-0.668C58.24,56.781,58.54,56.482,58.908,56.482z"/>
	<g>
		<path d="M41.908,0C18.762,0,0,18.763,0,41.909c0,23.146,18.763,41.908,41.908,41.908s41.909-18.762,41.909-41.908
			C83.816,18.763,65.053,0,41.908,0z M29.908,61.992c0,1.654-1.346,3-3,3h-4c-1.654,0-3-1.346-3-3V21.825c0-1.654,1.346-3,3-3h4
			c1.654,0,3,1.346,3,3V61.992z M46.908,61.992c0,1.654-1.346,3-3,3h-4c-1.654,0-3-1.346-3-3V21.825c0-1.654,1.346-3,3-3h4
			c1.654,0,3,1.346,3,3V61.992z M63.908,61.992c0,1.654-1.346,3-3,3h-4c-1.654,0-3-1.346-3-3V21.825c0-1.654,1.346-3,3-3h4
			c1.654,0,3,1.346,3,3V61.992z"/>
		<path d="M43.908,20.825h-4c-0.551,0-1,0.449-1,1v40.167c0,0.551,0.449,1,1,1h4c0.551,0,1-0.449,1-1V21.825
			C44.908,21.274,44.459,20.825,43.908,20.825z M42.908,41.909c0,0.552-0.448,1-1,1c-0.552,0-1-0.447-1-1V24.524
			c0-0.552,0.448-1,1-1c0.552,0,1,0.448,1,1V41.909z"/>
		<path d="M26.908,20.825h-4c-0.551,0-1,0.449-1,1v40.167c0,0.551,0.449,1,1,1h4c0.551,0,1-0.449,1-1V21.825
			C27.908,21.274,27.459,20.825,26.908,20.825z M25.908,41.909c0,0.552-0.448,1-1,1c-0.552,0-1-0.447-1-1V24.524
			c0-0.552,0.448-1,1-1c0.552,0,1,0.448,1,1V41.909z"/>
		<path d="M60.908,20.825h-4c-0.551,0-1,0.449-1,1v40.167c0,0.551,0.449,1,1,1h4c0.551,0,1-0.449,1-1V21.825
			C61.908,21.274,61.459,20.825,60.908,20.825z M59.908,41.909c0,0.552-0.448,1-1,1c-0.553,0-1-0.447-1-1V24.524
			c0-0.552,0.447-1,1-1c0.552,0,1,0.448,1,1V41.909z"/>
	</g>
</g>
</svg>