<?xml version="1.0" encoding="UTF-8" standalone="no"?>
<svg xmlns="http://www.w3.org/2000/svg"
     viewBox="0 0 1024 1024"
     width="1024"
     height="1024">
  <defs>
    <radialGradient id="bevelGrad" cx="40%" cy="35%" r="75%">
      <stop offset="0%"  stop-color="#1a1a1a"/>
      <stop offset="60%" stop-color="#080808"/>
      <stop offset="100%" stop-color="#000000"/>
    </radialGradient>
  </defs>
  <g transform="translate(0,1024) scale(0.1,-0.1)">
    <path d="M4820 10084 c-19 -2 -91 -9 -160 -14 -847 -72 -1725 -399 -2431 -906
-1164 -835 -1891 -2085 -2056 -3536 -25 -217 -25 -799 0 -1016 258 -2264 1912
-4021 4139 -4397 380 -64 959 -82 1318 -42 1647 186 3040 1107 3839 2540 319
572 519 1207 598 1899 25 217 25 799 0 1016 -270 2370 -2070 4175 -4427 4438
-136 15 -730 28 -820 18z" fill="url(#bevelGrad)"/>
    <path d="M4820 10084 c-19 -2 -91 -9 -160 -14 -847 -72 -1725 -399 -2431 -906
-1164 -835 -1891 -2085 -2056 -3536 -25 -217 -25 -799 0 -1016 258 -2264 1912
-4021 4139 -4397 380 -64 959 -82 1318 -42 1647 186 3040 1107 3839 2540 319
572 519 1207 598 1899 25 217 25 799 0 1016 -270 2370 -2070 4175 -4427 4438
-136 15 -730 28 -820 18z m660 -705 c669 -53 1322 -272 1918 -642 88 -55 111
-73 106 -86 -19 -42 -15 -101 10 -165 54 -135 32 -247 -75 -376 -216 -262
-563 -532 -809 -631 -276 -111 -538 -134 -835 -75 -262 52 -290 56 -479 68
-1265 78 -2348 -808 -2543 -2082 -24 -158 -23 -487 1 -665 107 -782 631 -1513
1331 -1855 355 -173 599 -230 1014 -237 451 -8 708 49 1122 249 246 118 209
127 456 -113 106 -104 214 -202 239 -220 197 -135 468 -61 576 159 31 62 33
74 33 167 0 152 -23 193 -217 393 -271 278 -267 266 -160 438 428 684 516
1436 256 2175 -126 359 -248 510 -430 534 -217 28 -399 -136 -399 -360 0 -89
0 -91 61 -220 145 -307 178 -452 179 -790 0 -243 -1 -253 -29 -365 -53 -214
-149 -440 -226 -533 -55 -65 -57 -64 -323 193 -298 287 -310 294 -479 288
-131 -4 -184 -26 -266 -108 -77 -77 -107 -155 -107 -280 0 -156 7 -168 275
-443 257 -264 254 -257 153 -310 -215 -111 -558 -167 -841 -136 -680 74 -1208
504 -1427 1163 -101 304 -109 704 -20 1011 196 678 767 1150 1473 1216 169 17
344 1 636 -57 821 -164 1422 29 2081 666 365 353 366 354 490 355 73 0 87 -3
155 -37 78 -40 110 -45 156 -27 33 12 29 16 131 -136 808 -1202 952 -2733 383
-4065 -294 -688 -765 -1289 -1363 -1738 -1218 -916 -2844 -1112 -4247 -512
-1369 585 -2334 1839 -2550 3314 -58 395 -58 837 0 1232 216 1474 1181 2729
2547 3313 650 278 1326 387 2043 330z" fill="#3968be"/>
  </g>
</svg>
