<?xml version="1.0" encoding="iso-8859-1"?>
<!-- Uploaded to: SVG Repo, www.svgrepo.com, Generator: SVG Repo Mixer Tools -->
<svg fill="#000000" height="800px" width="800px" version="1.1" id="Layer_1" xmlns="http://www.w3.org/2000/svg" xmlns:xlink="http://www.w3.org/1999/xlink" 
	 viewBox="0 0 512.001 512.001" xml:space="preserve">
<g>
	<g>
		<path d="M509.231,415.197c-1.242-1.5-28.21-33.707-68.75-55.784c45.168-67.299,30.673-161.007,29.984-165.256
			c-0.928-5.716-5.789-9.965-11.578-10.118c-0.915-0.023-9.117-0.196-21.788,0.762c-2.88-43.618-16.153-77.982-16.77-79.56
			c-2.113-5.393-7.765-8.522-13.452-7.449c-2.096,0.394-48.327,9.347-91.938,37.136c-24.082-33.429-49.24-54.57-51.251-56.236
			c-4.46-3.694-10.916-3.695-15.375,0c-2.01,1.666-27.169,22.806-51.25,56.234c-43.61-27.789-89.842-36.742-91.939-37.136
			c-5.685-1.073-11.34,2.055-13.452,7.449c-0.618,1.578-13.89,35.941-16.771,79.559c-12.668-0.957-20.871-0.783-21.789-0.759
			c-5.788,0.153-10.65,4.401-11.578,10.118c-0.689,4.249-15.182,97.959,29.985,165.256c-40.54,22.078-67.507,54.284-68.75,55.784
			c-3.694,4.459-3.695,10.916,0,15.375c2.577,3.112,64.017,76.204,142.188,76.204c44.607,0,83.865-23.643,111.042-46.04
			c27.177,22.396,66.435,46.04,111.042,46.04c78.17,0,139.611-73.092,142.188-76.204
			C512.924,426.112,512.924,419.656,509.231,415.197z M447.847,208.333c2.401,26.852,4.628,99.961-34.847,147.678
			c-0.022,0.026-0.047,0.049-0.069,0.076c-0.658,0.794-1.322,1.585-2.005,2.367c-0.941,1.076-1.904,2.127-2.879,3.163
			c-0.288,0.306-0.58,0.607-0.87,0.91c-0.729,0.759-1.465,1.508-2.211,2.245c-0.296,0.293-0.592,0.588-0.891,0.879
			c-1.006,0.975-2.023,1.938-3.057,2.875c-0.006,0.006-0.013,0.012-0.019,0.018c-1.042,0.944-2.103,1.862-3.172,2.768
			c-0.322,0.274-0.647,0.541-0.973,0.81c-0.789,0.657-1.586,1.303-2.389,1.939c-0.331,0.263-0.663,0.528-0.997,0.788
			c-1.07,0.833-2.149,1.654-3.241,2.451c-0.036,0.026-0.072,0.054-0.108,0.081c-1.112,0.812-2.237,1.6-3.37,2.378
			c-0.358,0.246-0.717,0.486-1.077,0.728c-0.827,0.557-1.657,1.105-2.493,1.644c-0.37,0.239-0.739,0.478-1.11,0.713
			c-1.075,0.681-2.156,1.35-3.245,2.002c-0.146,0.087-0.292,0.176-0.437,0.263c-1.11,0.66-2.227,1.303-3.35,1.933
			c-0.405,0.228-0.813,0.451-1.22,0.676c-0.826,0.456-1.652,0.903-2.484,1.343c-0.418,0.222-0.836,0.445-1.256,0.663
			c-1.044,0.542-2.092,1.074-3.143,1.593c-0.275,0.136-0.551,0.272-0.827,0.406c-1.071,0.522-2.146,1.033-3.223,1.532
			c-0.459,0.213-0.92,0.421-1.38,0.629c-0.791,0.359-1.584,0.712-2.377,1.059c-0.476,0.208-0.952,0.418-1.429,0.622
			c-0.95,0.406-1.901,0.803-2.851,1.193c-0.488,0.2-0.976,0.398-1.464,0.593c-0.957,0.383-1.915,0.76-2.874,1.128
			c-0.522,0.2-1.045,0.395-1.567,0.59c-0.727,0.271-1.452,0.539-2.179,0.801c-0.537,0.195-1.076,0.389-1.614,0.58
			c-0.818,0.289-1.635,0.569-2.452,0.846c-0.736,0.251-1.471,0.497-2.207,0.738c-0.794,0.26-1.587,0.519-2.379,0.77
			c-0.594,0.188-1.186,0.37-1.779,0.552c-0.625,0.193-1.251,0.382-1.875,0.569c-0.61,0.182-1.218,0.364-1.827,0.54
			c-0.646,0.187-1.288,0.368-1.932,0.548c-1.024,0.288-2.046,0.569-3.063,0.841c-0.581,0.155-1.162,0.312-1.739,0.463
			c-0.669,0.174-1.334,0.342-1.999,0.509c-0.504,0.127-1.006,0.252-1.508,0.375c-0.676,0.165-1.351,0.33-2.022,0.489
			c-0.448,0.106-0.894,0.207-1.34,0.311c-1.332,0.309-2.655,0.604-3.967,0.887c-0.334,0.072-0.67,0.146-1.001,0.217
			c-0.736,0.155-1.467,0.306-2.196,0.454c-0.365,0.075-0.729,0.148-1.092,0.221c-0.741,0.147-1.48,0.293-2.211,0.433
			c-0.223,0.042-0.443,0.083-0.665,0.124c-1.649,0.311-3.277,0.604-4.878,0.877c-0.071,0.012-0.142,0.025-0.213,0.037
			c-0.798,0.136-1.586,0.265-2.372,0.392c-0.21,0.034-0.419,0.068-0.629,0.101c-3.462,0.552-6.795,1.021-9.967,1.418
			c-0.06,0.007-0.121,0.016-0.181,0.023c-0.487,0.06-0.963,0.117-1.441,0.174c24.087-25.909,58.56-70.924,68.738-124.774
			c0.002-0.011,0.004-0.023,0.006-0.034c0.341-1.807,0.65-3.626,0.934-5.452c0.053-0.34,0.106-0.681,0.157-1.022
			c0.265-1.767,0.507-3.541,0.717-5.324c0.013-0.112,0.03-0.223,0.042-0.335c0.216-1.873,0.396-3.756,0.549-5.647
			c0.035-0.431,0.061-0.864,0.093-1.297c0.106-1.462,0.193-2.928,0.26-4.401c0.024-0.521,0.049-1.04,0.067-1.562
			c0.066-1.873,0.112-3.752,0.112-5.64c0-1.37-0.023-2.747-0.06-4.125c-0.016-0.603-0.042-1.201-0.065-1.802
			c-0.028-0.717-0.057-1.435-0.094-2.155c-0.042-0.827-0.093-1.651-0.147-2.475c-0.026-0.395-0.055-0.791-0.086-1.187
			c-0.453-6.157-1.25-12.221-2.348-18.178c0.504-0.217,1.006-0.445,1.511-0.657c0.311-0.13,0.621-0.262,0.932-0.391
			c1.551-0.642,3.103-1.264,4.655-1.863c0.27-0.104,0.54-0.204,0.81-0.306c1.358-0.517,2.716-1.017,4.073-1.503
			c0.334-0.119,0.669-0.242,1.003-0.36c1.449-0.51,2.895-0.999,4.337-1.475c0.523-0.172,1.045-0.34,1.568-0.507
			c1.028-0.33,2.052-0.65,3.076-0.963c0.948-0.29,1.896-0.574,2.841-0.85c0.77-0.225,1.54-0.448,2.307-0.665
			c0.897-0.252,1.792-0.5,2.684-0.741c0.205-0.055,0.407-0.107,0.611-0.161C412.42,210.862,435.192,208.899,447.847,208.333z
			 M401.221,123.881c3.956,12.723,10.223,36.476,11.902,63.663c-18.345,2.809-40.264,7.826-62.032,16.762
			c-5.761-17.828-13.864-34.398-22.845-49.272C356.275,137.279,386.074,127.881,401.221,123.881z M110.785,123.867
			c15.127,3.979,44.866,13.345,72.974,31.161c-8.982,14.875-17.085,31.447-22.846,49.275c-21.77-8.937-43.689-13.953-62.032-16.763
			C100.56,160.345,106.831,136.583,110.785,123.867z M64.151,208.342c12.647,0.564,35.397,2.526,60.304,9.159
			c0.225,0.06,0.448,0.118,0.674,0.178c0.882,0.237,1.768,0.483,2.656,0.733c0.792,0.223,1.586,0.453,2.383,0.687
			c0.915,0.268,1.829,0.541,2.748,0.822c1.036,0.317,2.076,0.641,3.118,0.976c0.516,0.165,1.032,0.331,1.549,0.501
			c1.447,0.476,2.896,0.967,4.349,1.479c0.329,0.116,0.659,0.237,0.989,0.355c1.363,0.488,2.728,0.989,4.094,1.51
			c0.264,0.101,0.529,0.199,0.794,0.3c1.555,0.599,3.109,1.222,4.661,1.866c0.31,0.129,0.619,0.26,0.93,0.39
			c0.505,0.212,1.008,0.44,1.511,0.657c-1.099,5.963-1.896,12.035-2.349,18.199c-0.029,0.383-0.057,0.768-0.082,1.151
			c-0.055,0.832-0.106,1.663-0.148,2.498c-0.037,0.715-0.065,1.427-0.093,2.139c-0.023,0.605-0.049,1.209-0.065,1.815
			c-0.037,1.377-0.06,2.753-0.06,4.122c0,1.888,0.046,3.767,0.112,5.64c0.019,0.521,0.045,1.04,0.068,1.56
			c0.068,1.474,0.154,2.943,0.26,4.406c0.031,0.43,0.058,0.862,0.093,1.291c0.153,1.893,0.334,3.778,0.551,5.653
			c0.012,0.105,0.028,0.207,0.04,0.312c0.211,1.794,0.456,3.579,0.722,5.356c0.051,0.331,0.101,0.663,0.153,0.994
			c8.779,56.283,44.783,103.495,69.685,130.282c-0.159-0.019-0.319-0.039-0.48-0.058c-0.716-0.087-1.439-0.177-2.172-0.271
			c-0.304-0.039-0.605-0.077-0.911-0.118c-1.003-0.133-2.016-0.269-3.047-0.416c-0.078-0.011-0.158-0.023-0.236-0.035
			c-0.953-0.136-1.921-0.281-2.897-0.43c-0.342-0.052-0.688-0.107-1.034-0.161c-0.762-0.119-1.529-0.242-2.303-0.37
			c-0.349-0.058-0.699-0.115-1.051-0.174c-1.069-0.18-2.145-0.365-3.236-0.562c-0.125-0.023-0.252-0.047-0.377-0.07
			c-1.001-0.182-2.014-0.371-3.032-0.568c-0.377-0.072-0.757-0.148-1.136-0.223c-0.803-0.158-1.61-0.321-2.422-0.488
			c-0.382-0.078-0.764-0.157-1.148-0.237c-1.108-0.233-2.222-0.472-3.346-0.724c-0.166-0.037-0.335-0.076-0.503-0.114
			c-1.044-0.235-2.095-0.48-3.15-0.732c-0.406-0.096-0.813-0.196-1.22-0.295c-0.826-0.201-1.655-0.407-2.486-0.618
			c-0.412-0.105-0.823-0.208-1.236-0.315c-1.124-0.29-2.252-0.589-3.385-0.9c-0.208-0.057-0.417-0.116-0.625-0.174
			c-1.068-0.295-2.139-0.6-3.213-0.912c-0.423-0.123-0.846-0.25-1.27-0.376c-0.846-0.252-1.694-0.509-2.544-0.771
			c-0.422-0.13-0.844-0.26-1.265-0.393c-1.141-0.36-2.284-0.729-3.429-1.11c-0.219-0.073-0.439-0.148-0.658-0.222
			c-1.087-0.366-2.177-0.742-3.266-1.128c-0.427-0.151-0.854-0.306-1.281-0.46c-0.856-0.309-1.713-0.624-2.568-0.945
			c-0.424-0.159-0.848-0.317-1.271-0.48c-1.158-0.444-2.315-0.895-3.471-1.362c-0.19-0.077-0.381-0.155-0.572-0.233
			c-1.109-0.452-2.216-0.916-3.323-1.39c-0.418-0.18-0.835-0.363-1.253-0.545c-0.859-0.375-1.716-0.758-2.572-1.146
			c-0.415-0.188-0.829-0.375-1.241-0.566c-1.157-0.536-2.311-1.082-3.461-1.645c-0.159-0.077-0.317-0.157-0.476-0.235
			c-1.114-0.548-2.222-1.112-3.327-1.686c-0.399-0.207-0.797-0.419-1.195-0.63c-0.851-0.451-1.699-0.91-2.544-1.375
			c-0.395-0.218-0.791-0.435-1.185-0.656c-1.139-0.641-2.273-1.292-3.4-1.962c-0.122-0.072-0.242-0.146-0.364-0.218
			c-1.1-0.659-2.193-1.335-3.279-2.022c-0.374-0.236-0.745-0.477-1.116-0.717c-0.83-0.535-1.655-1.08-2.475-1.632
			c-0.366-0.247-0.734-0.493-1.099-0.744c-1.111-0.763-2.216-1.539-3.308-2.336c-0.068-0.049-0.135-0.099-0.201-0.148
			c-1.075-0.787-2.137-1.594-3.191-2.414c-0.341-0.265-0.679-0.536-1.018-0.805c-0.795-0.63-1.585-1.271-2.367-1.921
			c-0.33-0.275-0.662-0.547-0.989-0.824c-1.056-0.895-2.104-1.803-3.133-2.736c-0.028-0.025-0.055-0.051-0.082-0.075
			c-1.022-0.927-2.027-1.876-3.021-2.841c-0.304-0.294-0.604-0.594-0.905-0.892c-0.741-0.733-1.474-1.477-2.198-2.232
			c-0.293-0.305-0.586-0.607-0.876-0.915c-0.974-1.036-1.937-2.086-2.878-3.162c-0.011-0.012-0.02-0.025-0.031-0.037
			c-0.672-0.77-1.328-1.55-1.976-2.333c-0.021-0.024-0.042-0.046-0.063-0.07C59.525,308.294,61.755,235.176,64.151,208.342z
			 M144.96,482.673c-52.976,0-99.399-42.1-116.566-59.794c10.412-10.746,31.574-30.466,58.422-44.293
			c0.27,0.286,0.547,0.562,0.818,0.845c0.308,0.321,0.616,0.64,0.927,0.956c0.568,0.578,1.14,1.15,1.715,1.716
			c0.277,0.274,0.552,0.548,0.83,0.82c0.709,0.687,1.423,1.365,2.142,2.035c0.149,0.139,0.295,0.281,0.445,0.419
			c0.893,0.826,1.793,1.639,2.702,2.44c0.117,0.104,0.236,0.204,0.354,0.306c0.777,0.681,1.559,1.355,2.349,2.019
			c0.255,0.216,0.515,0.427,0.771,0.64c0.66,0.548,1.323,1.092,1.99,1.628c0.292,0.234,0.584,0.466,0.877,0.698
			c0.651,0.516,1.305,1.026,1.962,1.529c0.288,0.222,0.577,0.442,0.867,0.662c0.697,0.527,1.397,1.046,2.099,1.559
			c0.246,0.18,0.491,0.362,0.738,0.54c0.859,0.622,1.723,1.234,2.592,1.838c0.087,0.06,0.174,0.123,0.26,0.183
			c1.976,1.368,3.976,2.686,5.994,3.963c0.184,0.117,0.37,0.23,0.556,0.346c0.809,0.507,1.621,1.009,2.436,1.502
			c0.242,0.146,0.484,0.29,0.727,0.436c0.776,0.464,1.553,0.923,2.333,1.374c0.243,0.141,0.486,0.281,0.729,0.421
			c0.817,0.468,1.637,0.929,2.457,1.384c0.193,0.107,0.386,0.216,0.578,0.322c0.993,0.545,1.989,1.082,2.988,1.608
			c0.013,0.007,0.028,0.014,0.041,0.022c2.123,1.117,4.259,2.19,6.403,3.221c0.087,0.042,0.174,0.082,0.26,0.124
			c0.95,0.456,1.902,0.903,2.854,1.343c0.181,0.083,0.362,0.165,0.541,0.248c0.877,0.401,1.755,0.797,2.634,1.185
			c0.19,0.084,0.38,0.167,0.57,0.251c0.907,0.398,1.815,0.787,2.724,1.17c0.14,0.059,0.28,0.119,0.419,0.178
			c4.277,1.794,8.564,3.436,12.834,4.938c0.124,0.043,0.249,0.087,0.374,0.13c0.936,0.328,1.872,0.648,2.807,0.963
			c0.147,0.049,0.295,0.099,0.442,0.148c0.946,0.316,1.891,0.625,2.834,0.929c0.105,0.034,0.211,0.069,0.316,0.102
			c4.265,1.364,8.496,2.593,12.665,3.701c0.09,0.024,0.182,0.048,0.272,0.072c0.938,0.248,1.872,0.49,2.802,0.725
			c0.128,0.033,0.256,0.065,0.383,0.096c0.917,0.231,1.829,0.457,2.739,0.676c0.107,0.025,0.214,0.052,0.321,0.078
			c4.089,0.982,8.1,1.851,12.006,2.619c0.098,0.019,0.194,0.037,0.292,0.057c0.857,0.168,1.709,0.33,2.556,0.488
			c0.148,0.028,0.296,0.055,0.446,0.083c0.815,0.151,1.625,0.298,2.428,0.44c0.136,0.024,0.271,0.048,0.407,0.072
			c0.874,0.153,1.74,0.303,2.601,0.446c0.047,0.008,0.094,0.016,0.141,0.024c2.786,0.463,5.499,0.876,8.128,1.242
			c0.139,0.019,0.276,0.037,0.415,0.057c0.712,0.099,1.417,0.194,2.116,0.286c0.183,0.024,0.365,0.047,0.547,0.071
			c0.658,0.086,1.311,0.168,1.957,0.248c0.188,0.023,0.377,0.047,0.564,0.07c0.659,0.08,1.31,0.157,1.956,0.231
			c0.153,0.018,0.307,0.036,0.459,0.053c1.602,0.182,3.162,0.348,4.677,0.498c0.092,0.01,0.181,0.017,0.272,0.027
			c0.636,0.063,1.265,0.123,1.886,0.18c0.229,0.02,0.452,0.041,0.678,0.061c0.483,0.043,0.962,0.086,1.434,0.125
			c0.248,0.022,0.494,0.042,0.74,0.061c0.445,0.037,0.883,0.072,1.318,0.106c0.251,0.019,0.501,0.04,0.748,0.058
			c0.417,0.031,0.827,0.061,1.234,0.092c0.242,0.018,0.487,0.035,0.727,0.052c0.427,0.03,0.842,0.057,1.257,0.084
			c0.206,0.013,0.416,0.028,0.619,0.041c0.583,0.037,1.155,0.071,1.713,0.104c0.266,0.016,0.522,0.029,0.783,0.043
			c0.299,0.017,0.6,0.033,0.892,0.048c0.299,0.016,0.587,0.029,0.877,0.043c0.245,0.012,0.489,0.024,0.728,0.035
			c0.297,0.013,0.586,0.027,0.874,0.039c0.107,0.005,0.219,0.01,0.324,0.014C220.018,459.831,184.395,482.673,144.96,482.673z
			 M256,196.604c-6.656,0-12.051,5.395-12.051,12.051v190.766c-0.196-0.208-0.389-0.411-0.588-0.622
			c-0.051-0.054-0.102-0.11-0.154-0.164c-0.525-0.56-1.057-1.13-1.594-1.712c-0.029-0.031-0.058-0.063-0.087-0.094
			c-20.55-22.252-49.704-59.888-60.793-103.844c-0.017-0.069-0.034-0.139-0.051-0.207c-0.278-1.111-0.545-2.227-0.8-3.347
			c-0.049-0.219-0.099-0.439-0.148-0.658c-0.222-0.994-0.434-1.992-0.638-2.992c-0.051-0.252-0.104-0.504-0.153-0.756
			c-0.207-1.049-0.403-2.101-0.588-3.156c-0.03-0.17-0.063-0.34-0.092-0.51c-0.422-2.451-0.781-4.918-1.077-7.401
			c-0.039-0.322-0.071-0.645-0.107-0.968c-0.1-0.891-0.194-1.782-0.276-2.677c-0.039-0.416-0.074-0.833-0.108-1.25
			c-0.069-0.817-0.129-1.637-0.183-2.456c-0.029-0.436-0.058-0.873-0.082-1.309c-0.048-0.852-0.084-1.705-0.116-2.56
			c-0.014-0.387-0.033-0.772-0.043-1.159c-0.035-1.233-0.057-2.468-0.057-3.706c0-1.277,0.024-2.562,0.061-3.85
			c0.01-0.33,0.025-0.659,0.037-0.989c0.037-1.005,0.084-2.013,0.145-3.024c0.018-0.311,0.037-0.623,0.058-0.934
			c0.077-1.163,0.168-2.33,0.275-3.5c0.011-0.124,0.021-0.248,0.033-0.371c0.255-2.695,0.593-5.405,1.009-8.127
			c0.037-0.24,0.076-0.48,0.113-0.721c0.171-1.089,0.358-2.181,0.554-3.274c0.055-0.304,0.107-0.607,0.164-0.911
			c0.235-1.262,0.486-2.526,0.756-3.793c0.092-0.428,0.192-0.852,0.287-1.279c0.175-0.787,0.353-1.574,0.54-2.361
			c0.18-0.754,0.365-1.508,0.556-2.258c0.076-0.3,0.153-0.599,0.231-0.899c14.425-55.453,57.354-100.645,74.98-117.37
			c12.653,11.978,38.301,38.561,57.113,73.118c0.065,0.121,0.133,0.241,0.198,0.362c0.436,0.804,0.868,1.614,1.296,2.426
			c0.184,0.351,0.365,0.701,0.547,1.052c0.577,1.11,1.147,2.228,1.709,3.354c0.317,0.636,0.635,1.273,0.945,1.909
			c0.258,0.53,0.513,1.063,0.768,1.596c0.405,0.851,0.804,1.7,1.195,2.55c0.145,0.315,0.293,0.627,0.436,0.941
			c0.553,1.216,1.091,2.432,1.615,3.647c0.101,0.234,0.2,0.469,0.3,0.703c0.481,1.127,0.952,2.254,1.409,3.379
			c0.058,0.142,0.116,0.283,0.174,0.424c3.276,8.132,5.896,16.213,7.843,24.208v0.001c2.074,8.517,3.388,16.985,3.935,25.28
			c0.017,0.255,0.033,0.512,0.048,0.769c0.064,1.053,0.112,2.103,0.149,3.15c0.011,0.31,0.026,0.618,0.035,0.929
			c0.039,1.293,0.063,2.583,0.063,3.866c0,1.239-0.022,2.473-0.057,3.706c-0.011,0.388-0.03,0.776-0.045,1.163
			c-0.031,0.852-0.067,1.703-0.116,2.551c-0.024,0.44-0.054,0.88-0.082,1.318c-0.053,0.816-0.115,1.631-0.182,2.444
			c-0.035,0.422-0.071,0.844-0.11,1.264c-0.082,0.886-0.175,1.77-0.275,2.653c-0.037,0.33-0.07,0.662-0.11,0.991
			c-0.295,2.478-0.654,4.94-1.075,7.386c-0.031,0.183-0.066,0.366-0.099,0.55c-0.183,1.039-0.375,2.076-0.58,3.109
			c-0.053,0.266-0.107,0.531-0.161,0.798c-0.2,0.982-0.407,1.961-0.625,2.937c-0.053,0.236-0.106,0.474-0.159,0.71
			c-0.249,1.095-0.51,2.186-0.782,3.274c-0.023,0.093-0.045,0.186-0.069,0.277c-10.781,42.71-38.612,79.449-59.031,101.906
			c-0.018,0.019-0.036,0.04-0.054,0.059c-0.542,0.597-1.08,1.181-1.611,1.757c-0.087,0.094-0.174,0.188-0.26,0.282
			c-0.459,0.497-0.912,0.982-1.362,1.463c-0.124,0.133-0.249,0.268-0.374,0.399c-0.175,0.187-0.345,0.365-0.518,0.548V208.655
			C268.052,201.999,262.655,196.604,256,196.604z M367.043,482.673c-39.436,0-75.059-22.844-99.129-43.403
			c0.107-0.005,0.221-0.01,0.328-0.014c0.29-0.012,0.582-0.025,0.881-0.039c0.228-0.011,0.46-0.022,0.693-0.033
			c0.304-0.014,0.607-0.029,0.92-0.046c0.24-0.012,0.488-0.027,0.733-0.04c0.352-0.019,0.703-0.039,1.064-0.059
			c0.505-0.029,1.017-0.06,1.541-0.093c0.278-0.018,0.566-0.037,0.85-0.057c0.337-0.022,0.674-0.045,1.018-0.069
			c0.288-0.021,0.581-0.042,0.874-0.063c0.353-0.025,0.707-0.052,1.068-0.078c0.301-0.023,0.606-0.047,0.912-0.071
			c0.366-0.029,0.738-0.059,1.111-0.089c0.304-0.025,0.607-0.051,0.916-0.077c0.412-0.035,0.83-0.072,1.251-0.11
			c0.278-0.025,0.554-0.049,0.836-0.076c0.513-0.047,1.036-0.098,1.561-0.148c0.202-0.019,0.4-0.037,0.604-0.058
			c0.736-0.073,1.484-0.149,2.24-0.23c0.136-0.014,0.276-0.03,0.413-0.045c0.629-0.067,1.263-0.137,1.905-0.211
			c0.236-0.026,0.476-0.055,0.713-0.083c0.552-0.064,1.109-0.13,1.67-0.198c0.266-0.033,0.534-0.065,0.803-0.099
			c0.554-0.069,1.112-0.14,1.675-0.212c0.266-0.035,0.533-0.069,0.801-0.105c0.594-0.078,1.193-0.159,1.797-0.242
			c0.239-0.033,0.476-0.065,0.717-0.099c0.723-0.101,1.453-0.206,2.19-0.315c0.12-0.018,0.239-0.034,0.358-0.052
			c1.764-0.262,3.564-0.544,5.394-0.847c0.167-0.028,0.336-0.057,0.505-0.086c0.734-0.123,1.473-0.25,2.217-0.38
			c0.229-0.04,0.46-0.082,0.691-0.122c0.701-0.124,1.406-0.252,2.116-0.383c0.236-0.043,0.472-0.088,0.71-0.131
			c0.74-0.139,1.484-0.281,2.231-0.427c0.196-0.039,0.393-0.076,0.591-0.114c0.883-0.174,1.772-0.353,2.666-0.538
			c0.059-0.012,0.117-0.024,0.176-0.036c1.978-0.41,3.979-0.845,6.003-1.308c0.107-0.024,0.215-0.049,0.321-0.075
			c0.879-0.202,1.761-0.41,2.647-0.622c0.19-0.046,0.381-0.093,0.571-0.139c0.815-0.198,1.633-0.399,2.454-0.605
			c0.211-0.053,0.423-0.106,0.634-0.16c0.832-0.211,1.665-0.428,2.502-0.648c0.182-0.048,0.363-0.095,0.545-0.143
			c0.965-0.257,1.933-0.519,2.904-0.789c0.041-0.011,0.082-0.022,0.122-0.034c2.113-0.588,4.24-1.209,6.376-1.862
			c0.057-0.017,0.115-0.035,0.171-0.053c0.97-0.298,1.943-0.601,2.916-0.913c0.18-0.058,0.36-0.116,0.54-0.175
			c0.863-0.277,1.727-0.56,2.592-0.85c0.212-0.071,0.423-0.142,0.635-0.213c0.862-0.29,1.723-0.586,2.586-0.887
			c0.19-0.066,0.381-0.133,0.571-0.199c0.965-0.34,1.932-0.687,2.9-1.041c0.072-0.027,0.145-0.052,0.217-0.078
			c2.163-0.795,4.328-1.626,6.492-2.496c0.03-0.012,0.061-0.025,0.092-0.037c1.004-0.404,2.008-0.817,3.012-1.238
			c0.188-0.078,0.375-0.159,0.563-0.239c0.858-0.363,1.714-0.73,2.571-1.105c0.23-0.101,0.462-0.202,0.692-0.305
			c0.835-0.369,1.669-0.745,2.503-1.126c0.217-0.099,0.433-0.198,0.65-0.298c0.907-0.419,1.815-0.845,2.72-1.279
			c0.128-0.061,0.257-0.121,0.384-0.182c2.129-1.026,4.249-2.091,6.358-3.2c0.04-0.022,0.08-0.043,0.12-0.064
			c0.973-0.512,1.941-1.034,2.908-1.564c0.21-0.115,0.418-0.233,0.628-0.348c0.804-0.445,1.606-0.897,2.405-1.355
			c0.255-0.147,0.511-0.294,0.766-0.442c0.769-0.446,1.535-0.897,2.301-1.355c0.249-0.149,0.5-0.299,0.75-0.45
			c0.809-0.489,1.614-0.986,2.415-1.49c0.19-0.119,0.381-0.236,0.57-0.356c2.019-1.276,4.019-2.596,5.996-3.964
			c0.076-0.052,0.149-0.106,0.225-0.158c0.883-0.613,1.761-1.235,2.634-1.867c0.234-0.169,0.466-0.342,0.699-0.512
			c0.716-0.524,1.43-1.053,2.139-1.59c0.278-0.211,0.557-0.424,0.834-0.636c0.67-0.513,1.336-1.034,2-1.559
			c0.281-0.223,0.562-0.445,0.841-0.67c0.683-0.548,1.362-1.105,2.037-1.667c0.242-0.201,0.486-0.4,0.727-0.603
			c0.813-0.685,1.622-1.38,2.425-2.084c0.093-0.082,0.187-0.16,0.28-0.242c0.916-0.807,1.823-1.628,2.724-2.461
			c0.121-0.112,0.239-0.227,0.359-0.339c0.75-0.698,1.493-1.404,2.231-2.12c0.26-0.253,0.517-0.51,0.776-0.765
			c0.594-0.586,1.186-1.176,1.772-1.773c0.297-0.302,0.591-0.607,0.885-0.912c0.281-0.292,0.565-0.576,0.844-0.87
			c26.863,13.834,48.03,33.567,58.433,44.306C466.498,440.592,420.19,482.673,367.043,482.673z"/>
	</g>
</g>
<g>
	<g>
		<path d="M264.519,163.614c-0.554-0.554-1.169-1.061-1.832-1.494c-0.651-0.434-1.35-0.807-2.085-1.109
			c-0.723-0.301-1.481-0.53-2.252-0.687c-1.543-0.313-3.145-0.313-4.7,0c-0.771,0.157-1.531,0.386-2.254,0.687
			c-0.735,0.301-1.434,0.675-2.085,1.109c-0.663,0.434-1.277,0.94-1.832,1.494c-2.242,2.242-3.531,5.351-3.531,8.52
			c0,0.795,0.084,1.579,0.241,2.362c0.146,0.771,0.387,1.531,0.688,2.254s0.675,1.422,1.109,2.085
			c0.434,0.651,0.94,1.265,1.494,1.832c0.554,0.554,1.169,1.048,1.832,1.494c0.651,0.434,1.35,0.807,2.085,1.109
			c0.723,0.301,1.482,0.53,2.254,0.687s1.567,0.229,2.35,0.229c0.783,0,1.579-0.072,2.35-0.229c0.771-0.157,1.531-0.386,2.252-0.687
			c0.735-0.301,1.434-0.675,2.085-1.109c0.663-0.446,1.277-0.94,1.832-1.494c0.556-0.566,1.062-1.181,1.494-1.832
			c0.434-0.663,0.807-1.362,1.109-2.085s0.542-1.482,0.687-2.254c0.157-0.783,0.241-1.567,0.241-2.362
			C268.052,168.965,266.762,165.856,264.519,163.614z"/>
	</g>
</g>
<g>
	<g>
		<path d="M256.001,5.225c-6.656,0-12.051,5.395-12.051,12.051V38.78c0,6.656,5.395,12.051,12.051,12.051
			c6.655,0,12.051-5.395,12.051-12.051V17.276C268.053,10.62,262.656,5.225,256.001,5.225z"/>
	</g>
</g>
<g>
	<g>
		<path d="M348.2,36.246c-4.707-4.706-12.336-4.706-17.044,0L315.95,51.452c-4.706,4.706-4.706,12.337,0,17.044
			c2.355,2.354,5.439,3.53,8.523,3.53c3.085,0,6.168-1.176,8.522-3.53L348.2,53.291C352.906,48.585,352.906,40.954,348.2,36.246z"/>
	</g>
</g>
<g>
	<g>
		<path d="M196.05,51.452l-15.205-15.205c-4.706-4.706-12.337-4.706-17.044,0c-4.706,4.706-4.706,12.337,0,17.044l15.206,15.205
			c2.354,2.354,5.438,3.53,8.522,3.53c3.084,0,6.169-1.176,8.522-3.53C200.756,63.79,200.756,56.159,196.05,51.452z"/>
	</g>
</g>
</svg>