<?xml version="1.0" encoding="utf-8"?>
<!-- Svg Vector Icons : http://www.onlinewebfonts.com/icon -->
<!DOCTYPE svg PUBLIC "-//W3C//DTD SVG 1.1//EN" "http://www.w3.org/Graphics/SVG/1.1/DTD/svg11.dtd">
<svg version="1.1" xmlns="http://www.w3.org/2000/svg" xmlns:xlink="http://www.w3.org/1999/xlink" x="0px" y="0px" viewBox="0 0 256 256" enable-background="new 0 0 256 256" xml:space="preserve">
<metadata> Svg Vector Icons : http://www.onlinewebfonts.com/icon </metadata>
<g> <path fill="#000000" d="M241.1,128h-29.5c-1.2,0-3.7,1.3-3.7,2.5l-4.9,7.6l-6.2-26.5c0-2.5-2.5-3.8-4.9-3.8c-1.2,0-3.7,1.3-4.9,3.8 l-12.3,39.2l-7.4-59.4c0-2.5-2.5-3.8-4.9-3.8c-1.2,0-3.7,1.3-4.9,3.8l-20.9,96L128,32c0-2.5-2.5-5.1-4.9-5.1 c-1.2,0-3.7,1.3-4.9,3.8L94.8,134.3l-6.2-53.1c0-1.3-2.5-3.8-3.7-3.8c-2.5,0-4.9,1.3-6.2,3.8l-13.5,44.2l-6.2-24 c0-2.5-2.5-3.8-3.7-3.8c-2.5,0-4.9,1.3-4.9,2.5l-8.6,17.7h-27c-2.5,0-4.9,2.5-4.9,5.1s2.5,5.1,4.9,5.1h29.5c2.5,0,3.7-1.3,4.9-2.5 l3.7-8.8l6.2,27.8c1.2,2.5,2.5,3.8,4.9,3.8s3.7-1.3,4.9-3.8l12.3-39.2l7.4,58.1c0,2.5,2.5,5.1,4.9,5.1c2.5,0,4.9-1.3,4.9-3.8 l22.1-97.3L128,224c0,2.5,2.5,5.1,4.9,5.1s4.9-1.3,4.9-3.8l23.3-103.6l6.2,51.8c0,2.5,2.5,5.1,4.9,5.1c2.5,0,3.7-1.3,4.9-3.8 l14.7-44.2l4.9,24c1.2,1.3,2.5,3.8,4.9,3.8c1.2,0,3.7-1.3,4.9-2.5l8.6-17.7h25.8c2.5,0,4.9-2.5,4.9-5.1 C246,130.5,243.5,128,241.1,128L241.1,128z"/></g>
</svg>