<?xml version="1.0" encoding="utf-8"?>
<!-- Svg Vector Icons : http://www.onlinewebfonts.com/icon -->
<!DOCTYPE svg PUBLIC "-//W3C//DTD SVG 1.1//EN" "http://www.w3.org/Graphics/SVG/1.1/DTD/svg11.dtd">
<svg version="1.1" xmlns="http://www.w3.org/2000/svg" xmlns:xlink="http://www.w3.org/1999/xlink" x="0px" y="0px" viewBox="0 0 256 256" enable-background="new 0 0 256 256" xml:space="preserve">
<metadata> Svg Vector Icons : http://www.onlinewebfonts.com/icon </metadata>
<g><g><path fill="#000000" d="M10 69L39.5 10 216.5 10 246 69 z"/><path fill="#000000" d="M177.2,108.3v108.2h39.3V108.3H177.2z M206.7,137.8H187v-19.7h19.7V137.8z"/><path fill="#000000" d="M128,108.3v108.2h39.3V108.3H128z M157.5,137.8h-19.7v-19.7h19.7V137.8z"/><path fill="#000000" d="M78.8,108.3v108.2h39.3V108.3H78.8z M108.3,137.8H88.7v-19.7h19.7V137.8z"/><path fill="#000000" d="M10,78.8V246h236V78.8H10z M49.3,137.8H29.7v-19.7h19.7L49.3,137.8L49.3,137.8z M226.3,226.3H69V98.5h157.3V226.3z"/></g></g>
</svg>