<?xml version="1.0" encoding="utf-8"?>
<!-- Svg Vector Icons : http://www.onlinewebfonts.com/icon -->
<!DOCTYPE svg PUBLIC "-//W3C//DTD SVG 1.1//EN" "http://www.w3.org/Graphics/SVG/1.1/DTD/svg11.dtd">
<svg version="1.1" xmlns="http://www.w3.org/2000/svg" xmlns:xlink="http://www.w3.org/1999/xlink" x="0px" y="0px" viewBox="0 0 256 256" enable-background="new 0 0 256 256" xml:space="preserve">
<metadata> Svg Vector Icons : http://www.onlinewebfonts.com/icon </metadata>
<g><g><g><path fill="#000000" d="M168.7,101.6v89.7l-2.6-0.9c-17.8-6.2-41.8-5-57.7,2.9c-7.6,3.8-12.8,8.6-15.6,14.2c-1.4,2.8-1.5,3.3-1.5,7.6c0,4.3,0.1,4.9,1.5,7.8c10.1,20.4,52.8,27.8,80.6,14c8.6-4.3,13.9-9.7,16.1-16.3c1-2.8,1-3.2,1-71.7c0-37.9,0.1-68.9,0.4-68.9c0.7,0,10.9,8.5,15.2,12.8c12.7,12.6,20.4,25.9,23.3,39.9c2.9,14-0.2,30.5-8.1,44c-0.9,1.5-1.6,2.9-1.5,3c0.3,0.3,8.1-8.8,11.5-13.3c7.7-10.2,12.6-21.1,14.3-31.3c1.2-8,0.2-18.7-2.7-27.6c-1.8-5.6-6.9-15.5-11.6-22.4c-7.4-11.1-14.5-19.7-33.8-40.9c-16.3-17.8-19-20.9-24-27c-2.4-2.8-4.4-5.2-4.5-5.2C168.8,12,168.7,52.4,168.7,101.6z"/><path fill="#000000" d="M15.9,59.8c-1.9,0.9-4.4,3.4-5.2,5.4c-1.7,4-0.2,9.5,3.2,12c4.2,3.1,9.7,2.7,13.3-0.9c2.2-2.2,3-4.4,2.7-8.1c-0.2-3.4-1.6-5.7-4.3-7.6C23.5,59.2,18.2,58.7,15.9,59.8z"/><path fill="#000000" d="M47.4,62.1c-2,0.8-4.2,3.6-4.6,5.5c-0.6,3.4,1.3,7.1,4.6,8.4c1.3,0.6,8.4,0.6,41.2,0.6h39.7l1.8-1.1c2.1-1.2,3.9-4.3,3.9-6.6c0-2.5-1.8-5.4-4.2-6.6l-2-1H88.3C56.6,61.5,48.5,61.6,47.4,62.1z"/><path fill="#000000" d="M17.7,95.2c-5.3,1.3-8.5,6.5-7.5,11.9c0.9,4.7,4.9,8,9.8,8c4,0,7.3-2,9.2-5.7c1.3-2.6,1.1-7.3-0.7-9.9C26.3,96.1,21.5,94.2,17.7,95.2z"/><path fill="#000000" d="M46.6,98.4c-4.3,2.3-5.1,8.1-1.8,11.7c2.4,2.7,0.7,2.6,43.6,2.6h39.5l2-1.1c2.3-1.2,4.2-4.2,4.2-6.5c0-2.2-1.5-5.1-3.3-6.3l-1.6-1.1l-40.4-0.1C49.5,97.6,48.2,97.6,46.6,98.4z"/><path fill="#000000" d="M16.7,131.4c-7.1,2.6-9,11.8-3.5,17.1c4.9,4.6,12.8,3.1,15.9-3.1c1.4-2.8,1.1-7.4-0.8-10.1C25.9,131.7,20.7,130,16.7,131.4z"/><path fill="#000000" d="M46.7,134.4c-5.6,2.8-5.3,11,0.6,13.6c1.8,0.8,3.9,0.9,40.7,0.9c24.1,0,39.4-0.2,40.4-0.5c2-0.6,4.5-3,5.2-5c0.7-2.1,0.2-5-1.2-6.9c-2.4-3.1,0.3-2.9-44-2.9C52.3,133.6,48.1,133.7,46.7,134.4z"/></g></g></g>
</svg>